ply
format ascii 1.0
comment Created by Blender 2.75 (sub 0) - www.blender.org, source file: 'letters.blend'
element vertex 10
property float x
property float y
property float z
property float nx
property float ny
property float nz
element face 10
property list uchar uint vertex_indices
end_header
0.006419 0.501991 0.000000 0.000000 -0.000000 1.000000
-0.006222 0.986060 0.000000 0.000000 -0.000000 1.000000
-0.147721 0.053766 0.000000 0.000000 -0.000000 1.000000
0.195563 -0.077354 0.000000 0.000000 0.000000 1.000000
0.440573 -0.993290 0.000000 0.000000 0.000000 1.000000
0.595874 -0.752426 0.000000 0.000000 0.000000 1.000000
0.164236 0.104930 0.000000 -0.000000 -0.000000 1.000000
-0.595876 -0.689194 -0.000000 0.000000 -0.000000 1.000000
-0.371422 -1.005335 0.000000 -0.000000 0.000000 1.000000
-0.177749 -0.160168 0.000000 -0.000000 0.000000 1.000000
3 0 1 2
3 3 4 5
3 6 5 1
3 1 7 2
3 6 1 0
3 7 8 9
3 3 6 9
3 6 2 9
3 6 3 5
3 2 7 9
