ply
format ascii 1.0
comment Created by Blender 2.75 (sub 0) - www.blender.org, source file: 'letters.blend'
element vertex 14
property float x
property float y
property float z
property float nx
property float ny
property float nz
element face 16
property list uchar uint vertex_indices
end_header
0.314847 -0.102655 0.000000 0.000000 0.000000 1.000000
0.320484 -0.614414 0.000000 0.000000 0.000000 1.000000
0.499699 -0.752775 0.000000 0.000000 0.000000 1.000000
-0.299047 0.783053 0.000000 -0.000000 0.000000 1.000000
-0.423823 0.967321 0.000000 -0.000000 0.000000 1.000000
-0.499699 -0.004225 0.000000 -0.000000 0.000000 1.000000
0.354612 0.649068 0.000000 0.000000 -0.000000 1.000000
0.215411 0.104801 0.000000 0.000000 -0.000000 1.000000
0.408689 0.015680 0.000000 0.000000 -0.000000 1.000000
-0.299047 0.104801 0.000000 0.000000 0.000000 1.000000
-0.302930 -0.792940 -0.000000 -0.000000 0.000000 1.000000
-0.490616 -0.975772 0.000000 -0.000000 0.000000 1.000000
-0.317357 -0.093782 0.000000 -0.000000 -0.000000 1.000000
0.499699 0.791978 0.000000 0.000000 0.000000 1.000000
3 0 1 2
3 3 4 5
3 6 7 8
3 7 9 5
3 10 11 2
3 10 12 5
3 3 6 13
3 12 0 8
3 8 0 2
3 9 3 5
3 13 6 8
3 8 7 5
3 1 10 2
3 11 10 5
3 4 3 13
3 5 12 8
