ply
format ascii 1.0
comment Created by Blender 2.75 (sub 0) - www.blender.org, source file: ''
element vertex 7
property float x
property float y
property float z
property float nx
property float ny
property float nz
element face 3
property list uchar uint vertex_indices
end_header
-0.069778 -1.000000 0.000000 -0.000000 0.000000 1.000000
-0.069778 1.000000 0.000000 -0.000000 0.000000 1.000000
-1.001307 -0.000000 0.000000 -0.000000 0.000000 1.000000
-0.069778 -0.334353 0.000000 0.000000 0.000000 1.000000
1.001858 -0.334353 0.000000 0.000000 0.000000 1.000000
1.001858 0.334353 0.000000 0.000000 0.000000 1.000000
-0.069778 0.334353 0.000000 0.000000 0.000000 1.000000
3 0 1 2
3 3 4 5
3 6 3 5
