ply
format ascii 1.0
comment Created by Blender 2.76 (sub 0) - www.blender.org, source file: ''
element vertex 88
property float x
property float y
property float z
property float nx
property float ny
property float nz
property uchar red
property uchar green
property uchar blue
element face 36
property list uchar uint vertex_indices
end_header
-1.000000 0.000000 -0.000000 -0.815165 0.470635 -0.337652 57 191 221
-0.500000 0.866026 -0.000000 -0.815165 0.470635 -0.337652 56 191 221
-0.353553 0.612373 -0.707107 -0.815165 0.470635 -0.337652 56 191 221
-0.707107 0.000000 0.707107 -0.815164 0.470635 0.337652 55 192 222
-0.353553 0.612373 0.707107 -0.815164 0.470635 0.337652 54 192 222
-0.500000 0.866026 -0.000000 -0.815164 0.470635 0.337652 56 191 221
-0.500000 0.866026 -0.000000 0.000000 0.941271 -0.337652 62 221 207
0.500000 0.866025 -0.000000 0.000000 0.941271 -0.337652 61 222 207
0.353554 0.612372 -0.707107 0.000000 0.941271 -0.337652 61 222 207
-0.353553 0.612373 0.707107 0.000000 0.941271 0.337652 62 221 207
0.353554 0.612372 0.707107 0.000000 0.941271 0.337652 62 221 206
0.500000 0.866025 -0.000000 0.000000 0.941271 0.337652 64 219 205
0.353554 0.612372 -0.707107 0.815165 0.470635 -0.337652 91 202 222
0.500000 0.866025 -0.000000 0.815165 0.470635 -0.337652 91 201 221
1.000000 -0.000000 -0.000000 0.815165 0.470635 -0.337652 90 200 220
0.353554 0.612372 0.707107 0.815165 0.470635 0.337652 91 202 222
0.707107 -0.000000 0.707107 0.815165 0.470635 0.337652 91 201 221
1.000000 -0.000000 -0.000000 0.815165 0.470635 0.337652 91 201 221
0.707107 -0.000000 -0.707107 0.815164 -0.470636 -0.337652 57 191 221
1.000000 -0.000000 -0.000000 0.815164 -0.470636 -0.337652 56 191 221
0.500000 -0.866026 -0.000000 0.815164 -0.470636 -0.337652 56 191 221
1.000000 -0.000000 -0.000000 0.815164 -0.470636 0.337652 55 192 222
0.707107 -0.000000 0.707107 0.815164 -0.470636 0.337652 55 192 222
0.353553 -0.612373 0.707107 0.815164 -0.470636 0.337652 55 192 222
0.500000 -0.866026 -0.000000 -0.000000 -0.941271 0.337652 62 221 206
0.353553 -0.612373 0.707107 -0.000000 -0.941271 0.337652 62 221 207
-0.353554 -0.612372 0.707107 -0.000000 -0.941271 0.337652 61 222 207
0.353553 -0.612373 -0.707107 -0.000000 -0.941271 -0.337652 62 220 206
0.500000 -0.866026 -0.000000 -0.000000 -0.941271 -0.337652 63 220 206
-0.500000 -0.866025 -0.000000 -0.000000 -0.941271 -0.337652 63 220 206
-0.707107 0.000000 0.707107 -0.373672 0.215739 0.902123 55 192 222
0.000000 -0.000000 1.000000 -0.373672 0.215739 0.902123 55 192 222
-0.353553 0.612373 0.707107 -0.373672 0.215739 0.902123 54 192 222
0.000000 0.000000 -1.000000 -0.373672 0.215739 -0.902123 55 192 222
-0.707107 0.000000 -0.707107 -0.373672 0.215739 -0.902123 55 192 222
-0.353553 0.612373 -0.707107 -0.373672 0.215739 -0.902123 55 191 221
-0.353553 0.612373 0.707107 0.000000 0.431479 0.902123 61 222 207
0.000000 -0.000000 1.000000 0.000000 0.431479 0.902123 61 222 207
0.353554 0.612372 0.707107 0.000000 0.431479 0.902123 61 222 207
0.000000 0.000000 -1.000000 0.000000 0.431479 -0.902123 62 221 206
-0.353553 0.612373 -0.707107 0.000000 0.431479 -0.902123 62 221 206
0.353554 0.612372 -0.707107 0.000000 0.431479 -0.902123 62 221 207
0.353554 0.612372 0.707107 0.373672 0.215739 0.902123 91 202 222
0.000000 -0.000000 1.000000 0.373672 0.215739 0.902123 91 202 222
0.707107 -0.000000 0.707107 0.373672 0.215739 0.902123 91 202 222
0.000000 0.000000 -1.000000 0.373672 0.215739 -0.902123 91 202 222
0.353554 0.612372 -0.707107 0.373672 0.215739 -0.902123 91 201 221
0.707107 -0.000000 -0.707107 0.373672 0.215739 -0.902123 91 202 221
0.707107 -0.000000 0.707107 0.373672 -0.215739 0.902123 55 192 222
0.000000 -0.000000 1.000000 0.373672 -0.215739 0.902123 56 191 221
0.353553 -0.612373 0.707107 0.373672 -0.215739 0.902123 55 192 222
0.000000 0.000000 -1.000000 0.373672 -0.215739 -0.902123 54 192 222
0.707107 -0.000000 -0.707107 0.373672 -0.215739 -0.902123 54 192 222
0.353553 -0.612373 -0.707107 0.373672 -0.215739 -0.902123 55 191 221
0.353553 -0.612373 0.707107 -0.000000 -0.431479 0.902123 62 221 206
0.000000 -0.000000 1.000000 -0.000000 -0.431479 0.902123 62 221 207
-0.353554 -0.612372 0.707107 -0.000000 -0.431479 0.902123 61 222 207
0.000000 0.000000 -1.000000 -0.000000 -0.431479 -0.902123 61 222 207
0.353553 -0.612373 -0.707107 -0.000000 -0.431479 -0.902123 62 221 207
-0.353554 -0.612372 -0.707107 -0.000000 -0.431479 -0.902123 61 222 207
0.000000 0.000000 -1.000000 -0.373672 -0.215739 -0.902123 91 202 222
-0.353554 -0.612372 -0.707107 -0.373672 -0.215739 -0.902123 91 202 222
-0.707107 0.000000 -0.707107 -0.373672 -0.215739 -0.902123 91 202 222
-0.353554 -0.612372 0.707107 -0.815165 -0.470635 0.337652 91 201 221
-0.707107 0.000000 0.707107 -0.815165 -0.470635 0.337652 91 202 222
-1.000000 0.000000 -0.000000 -0.815165 -0.470635 0.337652 91 201 221
-0.353554 -0.612372 -0.707107 -0.815165 -0.470635 -0.337652 91 202 222
-0.500000 -0.866025 -0.000000 -0.815165 -0.470635 -0.337652 91 201 221
-1.000000 0.000000 -0.000000 -0.815165 -0.470635 -0.337652 91 202 222
-0.353554 -0.612372 0.707107 -0.373672 -0.215739 0.902123 91 202 221
0.000000 -0.000000 1.000000 -0.373672 -0.215739 0.902123 91 202 222
-0.707107 0.000000 0.707107 -0.373672 -0.215739 0.902123 91 202 222
-0.707107 0.000000 -0.707107 -0.815165 0.470636 -0.337652 56 191 221
-1.000000 0.000000 -0.000000 -0.815165 0.470636 -0.337652 57 191 221
-0.353553 0.612373 -0.707107 -0.815165 0.470636 -0.337652 56 191 221
-1.000000 0.000000 -0.000000 -0.815164 0.470635 0.337652 55 191 221
-0.353553 0.612373 -0.707107 0.000000 0.941271 -0.337652 62 221 207
-0.500000 0.866026 -0.000000 0.000000 0.941271 0.337652 63 220 206
0.707107 -0.000000 -0.707107 0.815165 0.470635 -0.337652 91 201 221
0.500000 0.866025 -0.000000 0.815165 0.470635 0.337652 91 201 221
0.353553 -0.612373 -0.707107 0.815165 -0.470636 -0.337652 57 191 221
0.707107 -0.000000 -0.707107 0.815165 -0.470636 -0.337652 57 191 221
0.500000 -0.866026 -0.000000 0.815165 -0.470636 -0.337652 56 191 221
0.500000 -0.866026 -0.000000 0.815164 -0.470636 0.337652 57 191 221
-0.500000 -0.866025 -0.000000 -0.000000 -0.941271 0.337652 62 221 206
-0.353554 -0.612372 -0.707107 -0.000000 -0.941271 -0.337652 62 221 206
-0.500000 -0.866025 -0.000000 -0.815165 -0.470635 0.337652 91 201 221
-0.707107 0.000000 -0.707107 -0.815165 -0.470635 -0.337652 91 201 221
3 0 1 2
3 3 4 5
3 6 7 8
3 9 10 11
3 12 13 14
3 15 16 17
3 18 19 20
3 21 22 23
3 24 25 26
3 27 28 29
3 30 31 32
3 33 34 35
3 36 37 38
3 39 40 41
3 42 43 44
3 45 46 47
3 48 49 50
3 51 52 53
3 54 55 56
3 57 58 59
3 60 61 62
3 63 64 65
3 66 67 68
3 69 70 71
3 72 73 74
3 75 3 5
3 76 6 8
3 77 9 11
3 78 12 14
3 79 15 17
3 80 81 82
3 83 21 23
3 84 24 26
3 85 27 29
3 86 63 65
3 87 66 68
