ply
format ascii 1.0
comment Created by Blender 2.75 (sub 0) - www.blender.org, source file: 'letters.blend'
element vertex 10
property float x
property float y
property float z
property float nx
property float ny
property float nz
element face 8
property list uchar uint vertex_indices
end_header
-0.336938 -0.880469 -0.000000 0.000000 0.000000 1.000000
-0.145291 -0.695044 -0.000000 0.000000 0.000000 1.000000
-0.356097 -0.021523 -0.000000 0.000000 0.000000 1.000000
-0.145291 0.651999 -0.000000 0.000000 0.000000 1.000000
-0.336938 0.837424 -0.000000 0.000000 0.000000 1.000000
0.153028 -0.948151 -0.000000 0.000000 -0.000000 1.000000
-0.532699 -0.021523 -0.000000 -0.000000 0.000000 1.000000
0.532699 0.687836 -0.000000 0.000000 -0.000000 1.000000
0.172103 0.913457 0.000000 0.000000 -0.000000 1.000000
0.532699 -0.730881 -0.000000 -0.000000 -0.000000 1.000000
3 0 1 2
3 2 3 4
3 1 0 5
3 2 4 6
3 3 7 8
3 0 2 6
3 9 1 5
3 4 3 8
