ply
format ascii 1.0
comment Created by Blender 2.75 (sub 0) - www.blender.org, source file: 'letters.blend'
element vertex 6
property float x
property float y
property float z
property float nx
property float ny
property float nz
element face 4
property list uchar uint vertex_indices
end_header
0.107758 -1.006798 0.000000 0.000000 0.000000 1.000000
0.149513 -0.833013 0.000000 0.000000 0.000000 1.000000
0.006679 -0.696859 0.000000 0.000000 0.000000 1.000000
-0.146174 -0.829673 0.000000 0.000000 0.000000 1.000000
-0.044508 -0.964683 0.000000 -0.000000 -0.000000 1.000000
-0.118974 -1.193638 0.000000 0.000000 0.000000 1.000000
3 0 1 2
3 3 0 2
3 0 3 4
3 5 0 4
