ply
format ascii 1.0
comment Created by Blender 2.75 (sub 0) - www.blender.org, source file: ''
element vertex 24
property float x
property float y
property float z
property float nx
property float ny
property float nz
property uchar red
property uchar green
property uchar blue
element face 12
property list uchar uint vertex_indices
end_header
-1.000000 1.000000 1.000000 -1.000000 0.000000 0.000000 120 100 81
-1.000000 1.000000 -1.000000 -1.000000 0.000000 0.000000 163 244 126
-1.000000 -1.000000 -1.000000 -1.000000 0.000000 0.000000 49 82 120
1.000000 1.000000 1.000000 0.000000 1.000000 0.000000 163 244 126
1.000000 1.000000 -1.000000 0.000000 1.000000 0.000000 135 59 65
-1.000000 1.000000 -1.000000 0.000000 1.000000 0.000000 163 244 126
1.000000 -1.000000 1.000000 1.000000 0.000000 -0.000000 49 82 120
1.000000 -1.000000 -1.000000 1.000000 0.000000 -0.000000 109 33 120
1.000000 1.000000 -1.000000 1.000000 0.000000 -0.000000 135 59 65
-1.000000 -1.000000 1.000000 0.000000 -1.000000 0.000000 112 54 42
-1.000000 -1.000000 -1.000000 0.000000 -1.000000 0.000000 49 82 120
1.000000 -1.000000 -1.000000 0.000000 -1.000000 0.000000 109 33 120
-1.000000 1.000000 -1.000000 0.000000 0.000000 -1.000000 163 244 126
1.000000 1.000000 -1.000000 0.000000 0.000000 -1.000000 135 59 65
1.000000 -1.000000 -1.000000 0.000000 0.000000 -1.000000 109 33 120
1.000000 1.000000 1.000000 0.000000 0.000000 1.000000 163 244 126
-1.000000 1.000000 1.000000 0.000000 0.000000 1.000000 120 100 81
-1.000000 -1.000000 1.000000 0.000000 0.000000 1.000000 112 54 42
-1.000000 -1.000000 1.000000 -1.000000 0.000000 0.000000 112 54 42
-1.000000 1.000000 1.000000 0.000000 1.000000 -0.000000 120 100 81
1.000000 1.000000 1.000000 1.000000 0.000000 -0.000000 163 244 126
1.000000 -1.000000 1.000000 0.000000 -1.000000 0.000000 49 82 120
-1.000000 -1.000000 -1.000000 -0.000000 -0.000000 -1.000000 49 82 120
1.000000 -1.000000 1.000000 -0.000000 0.000000 1.000000 49 82 120
3 0 1 2
3 3 4 5
3 6 7 8
3 9 10 11
3 12 13 14
3 15 16 17
3 18 0 2
3 19 3 5
3 20 6 8
3 21 9 11
3 22 12 14
3 23 15 17
