ply
format ascii 1.0
comment Created by Blender 2.75 (sub 0) - www.blender.org, source file: 'letters.blend'
element vertex 8
property float x
property float y
property float z
property float nx
property float ny
property float nz
element face 8
property list uchar uint vertex_indices
end_header
-0.288868 0.703515 0.000000 0.000000 -0.000000 1.000000
0.216905 0.522952 -0.000000 0.000000 -0.000000 1.000000
0.393918 0.682747 -0.000000 0.000000 -0.000000 1.000000
0.298236 -0.591300 -0.000000 -0.000000 -0.000000 1.000000
0.465687 -0.694014 -0.000000 -0.000000 -0.000000 1.000000
-0.419375 -0.985651 0.000000 0.000000 0.000000 1.000000
-0.465687 1.003048 0.000000 0.000000 0.000000 1.000000
-0.273451 -0.708821 0.000000 0.000000 0.000000 1.000000
3 0 1 2
3 1 3 4
3 5 4 3
3 6 5 7
3 6 0 2
3 2 1 4
3 7 5 3
3 0 6 7
