ply
format ascii 1.0
comment Created by Blender 2.75 (sub 0) - www.blender.org, source file: 'letters.blend'
element vertex 13
property float x
property float y
property float z
property float nx
property float ny
property float nz
element face 11
property list uchar uint vertex_indices
end_header
-0.240215 0.094679 -0.000000 0.000000 0.000000 1.000000
-0.455498 -0.029218 0.000000 0.000000 0.000000 1.000000
-0.230329 -0.074580 -0.000000 0.000000 0.000000 1.000000
0.096791 0.975757 -0.000000 -0.000000 0.000000 1.000000
-0.209939 0.735407 -0.000000 -0.000000 0.000000 1.000000
0.455498 0.789116 0.000000 -0.000000 0.000000 1.000000
0.128736 -0.993992 -0.000000 0.000000 0.000000 1.000000
-0.254431 -0.767756 -0.000000 0.000000 0.000000 1.000000
-0.417642 -0.937189 0.000000 0.000000 0.000000 1.000000
-0.410620 0.893181 -0.000000 0.000000 -0.000000 1.000000
0.266200 0.063048 -0.000000 -0.000000 0.000000 1.000000
0.424777 -0.825890 -0.000000 -0.000000 0.000000 1.000000
0.249970 -0.094654 -0.000000 0.000000 -0.000000 1.000000
3 0 1 2
3 3 4 5
3 6 7 8
3 0 9 1
3 8 2 1
3 2 10 0
3 9 4 3
3 11 7 6
3 4 9 0
3 7 2 8
3 12 10 2
