ply
format ascii 1.0
comment Created by Blender 2.75 (sub 0) - www.blender.org, source file: ''
element vertex 12
property float x
property float y
property float z
property float nx
property float ny
property float nz
property uchar red
property uchar green
property uchar blue
element face 4
property list uchar uint vertex_indices
end_header
-0.193698 -1.294121 0.473296 0.534675 -0.170127 0.827756 33 152 215
1.288763 -0.255262 -0.270759 0.534675 -0.170127 0.827756 33 152 214
-0.148096 0.907315 0.896296 0.534675 -0.170127 0.827756 33 152 215
-0.824880 0.358913 -0.889906 -0.928559 -0.051400 0.367608 84 166 98
-0.193698 -1.294121 0.473296 -0.928559 -0.051400 0.367608 84 166 99
-0.148096 0.907315 0.896296 -0.928559 -0.051400 0.367608 84 166 99
1.288763 -0.255262 -0.270759 0.361309 0.844147 -0.396070 84 166 99
-0.824880 0.358913 -0.889906 0.361309 0.844147 -0.396070 84 165 99
-0.148096 0.907315 0.896296 0.361309 0.844147 -0.396070 84 166 99
-0.824880 0.358913 -0.889906 0.046723 -0.624856 -0.779341 33 152 214
1.288763 -0.255262 -0.270759 0.046723 -0.624856 -0.779341 33 152 215
-0.193698 -1.294121 0.473296 0.046723 -0.624856 -0.779341 33 152 215
3 0 1 2
3 3 4 5
3 6 7 8
3 9 10 11
