ply
format ascii 1.0
comment Created by Blender 2.75 (sub 0) - www.blender.org, source file: ''
element vertex 246
property float x
property float y
property float z
property float nx
property float ny
property float nz
property uchar red
property uchar green
property uchar blue
element face 82
property list uchar uint vertex_indices
end_header
-0.040757 0.857517 -0.567053 -0.329003 0.880618 -0.340982 33 152 215
-0.645929 0.718852 -0.341258 -0.329003 0.880618 -0.340982 33 152 215
-0.112226 1.039899 -0.027076 -0.329003 0.880618 -0.340982 33 152 215
0.521256 0.448368 0.805825 0.122973 0.321676 0.938830 33 152 215
-0.129743 0.646615 0.823170 0.122973 0.321676 0.938830 33 152 215
-0.009763 -0.020466 1.036020 0.122973 0.321676 0.938830 33 152 215
0.635991 -0.051063 0.797526 0.348419 0.064504 0.935117 33 152 215
0.521256 0.448368 0.805825 0.348419 0.064504 0.935117 33 152 215
-0.009763 -0.020466 1.036020 0.348419 0.064504 0.935117 33 152 215
0.635991 -0.051063 0.797526 0.790335 0.171792 0.588098 84 166 99
0.985197 0.175687 0.261997 0.790335 0.171792 0.588098 84 166 99
0.521256 0.448368 0.805825 0.790335 0.171792 0.588098 84 166 99
0.383135 0.833897 0.486951 0.222194 0.667453 0.710729 33 152 215
-0.129743 0.646615 0.823170 0.222194 0.667453 0.710729 33 152 215
0.521256 0.448368 0.805825 0.222194 0.667453 0.710729 33 152 215
-0.129743 0.646615 0.823170 -0.240389 0.255557 0.936431 84 166 99
-0.540581 0.262183 0.822618 -0.240389 0.255557 0.936431 84 166 99
-0.009763 -0.020466 1.036020 -0.240389 0.255557 0.936431 84 166 99
-0.129743 0.646615 0.823170 -0.477677 0.509460 0.715734 33 152 215
-0.701068 0.632904 0.451631 -0.477677 0.509460 0.715734 33 152 215
-0.540581 0.262183 0.822618 -0.477677 0.509460 0.715734 33 152 215
-0.701068 0.632904 0.451631 -0.808859 0.479604 0.340186 84 166 99
-0.903643 0.494434 0.165187 -0.808859 0.479604 0.340186 83 166 99
-0.827221 0.353866 0.545074 -0.808859 0.479604 0.340186 84 166 99
-0.009763 -0.020466 1.036020 -0.275412 -0.247844 0.928828 33 152 215
-0.538881 -0.302859 0.803776 -0.275412 -0.247844 0.928828 33 152 215
-0.094513 -0.545285 0.870850 -0.275412 -0.247844 0.928828 33 152 215
-0.540581 0.262183 0.822618 -0.387391 -0.031890 0.921364 33 152 215
-0.538881 -0.302859 0.803776 -0.387391 -0.031890 0.921364 33 152 215
-0.009763 -0.020466 1.036020 -0.387391 -0.031890 0.921364 33 152 215
-0.540581 0.262183 0.822618 -0.730105 -0.024968 0.682879 84 166 99
-0.879618 -0.405399 0.435726 -0.730105 -0.024968 0.682879 84 166 99
-0.538881 -0.302859 0.803776 -0.730105 -0.024968 0.682879 84 166 99
-0.701068 0.632904 0.451631 -0.529139 0.474741 0.703302 84 166 99
-0.827221 0.353866 0.545074 -0.529139 0.474741 0.703302 84 166 99
-0.540581 0.262183 0.822618 -0.529139 0.474741 0.703302 84 166 99
-0.827221 0.353866 0.545074 -0.703404 -0.053534 0.708771 33 152 215
-0.879618 -0.405399 0.435726 -0.703404 -0.053534 0.708771 33 152 215
-0.540581 0.262183 0.822618 -0.703404 -0.053534 0.708771 33 152 215
-0.879618 -0.405399 0.435726 -0.571060 -0.483528 0.663394 84 166 99
-0.422940 -0.765891 0.566090 -0.571060 -0.483528 0.663394 84 166 99
-0.538881 -0.302859 0.803776 -0.571060 -0.483528 0.663394 84 166 99
-0.094513 -0.545285 0.870850 0.155994 -0.748477 0.644553 33 152 215
0.172078 -1.002056 0.275912 0.155994 -0.748477 0.644553 33 152 215
0.278892 -0.486334 0.848935 0.155994 -0.748477 0.644553 33 152 215
-0.538881 -0.302859 0.803776 -0.387832 -0.495934 0.776940 84 166 99
-0.422940 -0.765891 0.566090 -0.387832 -0.495934 0.776940 84 166 99
-0.094513 -0.545285 0.870850 -0.387832 -0.495934 0.776940 84 166 99
-0.422940 -0.765891 0.566090 -0.022956 -0.797920 0.602326 33 152 215
0.172078 -1.002056 0.275912 -0.022956 -0.797920 0.602326 33 152 215
-0.094513 -0.545285 0.870850 -0.022956 -0.797920 0.602326 33 152 215
-0.094513 -0.545285 0.870850 0.104942 -0.313924 0.943631 33 152 215
0.278892 -0.486334 0.848935 0.104942 -0.313924 0.943631 33 152 215
-0.009763 -0.020466 1.036020 0.104942 -0.313924 0.943631 33 152 215
0.278892 -0.486334 0.848935 0.334804 -0.165107 0.927710 33 152 215
0.635991 -0.051063 0.797526 0.334804 -0.165107 0.927710 33 152 215
-0.009763 -0.020466 1.036020 0.334804 -0.165107 0.927710 33 152 215
0.278892 -0.486334 0.848935 0.534105 -0.347140 0.770860 33 152 215
0.711173 -0.620984 0.488784 0.534105 -0.347140 0.770860 33 152 215
0.635991 -0.051063 0.797526 0.534105 -0.347140 0.770860 33 152 215
0.172078 -1.002056 0.275912 0.280346 -0.738887 0.612742 84 166 99
0.711173 -0.620984 0.488784 0.280346 -0.738887 0.612742 84 166 98
0.278892 -0.486334 0.848935 0.280346 -0.738887 0.612742 84 166 99
0.711173 -0.620984 0.488784 0.806837 -0.195560 0.557467 84 166 98
0.990500 -0.264086 0.209706 0.806837 -0.195560 0.557467 84 166 98
0.635991 -0.051063 0.797526 0.806837 -0.195560 0.557467 84 166 99
0.635991 -0.051063 0.797526 0.846557 -0.052772 0.529676 84 166 99
0.990500 -0.264086 0.209706 0.846557 -0.052772 0.529676 84 166 98
0.985197 0.175687 0.261997 0.846557 -0.052772 0.529676 84 166 99
0.985197 0.175687 0.261997 0.770187 0.485546 0.413590 33 152 215
0.844115 0.599367 0.027329 0.770187 0.485546 0.413590 33 152 215
0.521256 0.448368 0.805825 0.770187 0.485546 0.413590 33 152 215
0.844115 0.599367 0.027329 0.701806 0.586208 0.404756 33 152 215
0.383135 0.833897 0.486951 0.701806 0.586208 0.404756 33 152 215
0.521256 0.448368 0.805825 0.701806 0.586208 0.404756 33 152 215
-0.112226 1.039899 -0.027076 -0.056914 0.906584 0.418171 41 116 156
-0.129743 0.646615 0.823170 -0.056914 0.906584 0.418171 41 116 156
0.383135 0.833897 0.486951 -0.056914 0.906584 0.418171 41 116 156
-0.112226 1.039899 -0.027076 -0.161577 0.896947 0.411557 33 152 215
-0.479309 0.889051 0.157565 -0.161577 0.896947 0.411557 33 152 215
-0.129743 0.646615 0.823170 -0.161577 0.896947 0.411557 33 152 215
-0.479309 0.889051 0.157565 -0.325159 0.820755 0.469716 84 166 99
-0.701068 0.632904 0.451631 -0.325159 0.820755 0.469716 84 166 99
-0.129743 0.646615 0.823170 -0.325159 0.820755 0.469716 84 166 99
-0.899554 0.180817 -0.458341 -0.954893 0.262724 -0.138405 84 166 99
-1.033423 0.004442 0.130456 -0.954893 0.262724 -0.138405 84 166 99
-0.903643 0.494434 0.165187 -0.954893 0.262724 -0.138405 84 166 99
-1.033423 0.004442 0.130456 -0.934693 0.228249 0.272492 33 152 215
-0.827221 0.353866 0.545074 -0.934693 0.228249 0.272492 33 152 215
-0.903643 0.494434 0.165187 -0.934693 0.228249 0.272492 33 152 215
-1.033423 0.004442 0.130456 -0.894481 -0.002662 0.447097 84 166 99
-0.879618 -0.405399 0.435726 -0.894481 -0.002662 0.447097 84 166 99
-0.827221 0.353866 0.545074 -0.894481 -0.002662 0.447097 84 166 99
-0.899554 0.180817 -0.458341 -0.974746 -0.005447 -0.223250 33 152 215
-0.955177 -0.304824 -0.203633 -0.974746 -0.005447 -0.223250 33 152 214
-1.033423 0.004442 0.130456 -0.974746 -0.005447 -0.223250 33 152 215
-0.955177 -0.304824 -0.203633 -0.949004 -0.308786 0.063579 84 166 98
-0.879618 -0.405399 0.435726 -0.949004 -0.308786 0.063579 84 166 99
-1.033423 0.004442 0.130456 -0.949004 -0.308786 0.063579 84 166 99
-0.626771 -0.818316 -0.069354 -0.642917 -0.718447 0.265501 33 152 215
-0.422940 -0.765891 0.566090 -0.642917 -0.718447 0.265501 33 152 215
-0.879618 -0.405399 0.435726 -0.642917 -0.718447 0.265501 33 152 215
-0.626771 -0.818316 -0.069354 -0.306787 -0.935442 0.175583 84 166 99
-0.162192 -1.004012 -0.246943 -0.306787 -0.935442 0.175583 83 166 99
-0.422940 -0.765891 0.566090 -0.306787 -0.935442 0.175583 84 166 99
-0.162192 -1.004012 -0.246943 -0.283419 -0.941038 0.184717 66 143 61
0.172078 -1.002056 0.275912 -0.283419 -0.941038 0.184717 66 143 61
-0.422940 -0.765891 0.566090 -0.283419 -0.941038 0.184717 66 143 61
0.172078 -1.002056 0.275912 0.502624 -0.835370 0.222544 84 166 99
0.553294 -0.849073 -0.010821 0.502624 -0.835370 0.222544 84 165 99
0.711173 -0.620984 0.488784 0.502624 -0.835370 0.222544 84 166 98
0.553294 -0.849073 -0.010821 0.778616 -0.626234 0.039850 33 152 215
0.879903 -0.459358 -0.268058 0.778616 -0.626234 0.039850 33 152 215
0.711173 -0.620984 0.488784 0.778616 -0.626234 0.039850 33 152 215
0.879903 -0.459358 -0.268058 0.806403 -0.588894 0.054019 84 166 99
0.990500 -0.264086 0.209706 0.806403 -0.588894 0.054019 84 166 98
0.711173 -0.620984 0.488784 0.806403 -0.588894 0.054019 84 166 98
0.844115 0.599367 0.027329 0.551987 0.823075 0.133630 84 166 99
0.441486 0.917888 -0.271410 0.551987 0.823075 0.133630 84 166 99
0.383135 0.833897 0.486951 0.551987 0.823075 0.133630 84 166 99
0.613380 0.608845 -0.552137 0.713363 0.645222 -0.273498 33 152 215
0.441486 0.917888 -0.271410 0.713363 0.645222 -0.273498 33 152 215
0.844115 0.599367 0.027329 0.713363 0.645222 -0.273498 33 152 215
0.441486 0.917888 -0.271410 0.266304 0.955575 0.126323 84 166 99
-0.112226 1.039899 -0.027076 0.266304 0.955575 0.126323 84 166 99
0.383135 0.833897 0.486951 0.266304 0.955575 0.126323 84 166 99
0.441486 0.917888 -0.271410 0.071781 0.947816 -0.310633 84 166 99
-0.040757 0.857517 -0.567053 0.071781 0.947816 -0.310633 84 166 99
-0.112226 1.039899 -0.027076 0.071781 0.947816 -0.310633 84 166 99
0.441486 0.917888 -0.271410 0.290513 0.726872 -0.622302 66 143 61
0.613380 0.608845 -0.552137 0.290513 0.726872 -0.622302 66 143 61
-0.040757 0.857517 -0.567053 0.290513 0.726872 -0.622302 66 143 61
-0.112226 1.039899 -0.027076 -0.440976 0.884143 -0.154374 33 152 215
-0.645929 0.718852 -0.341258 -0.440976 0.884143 -0.154374 33 152 215
-0.479309 0.889051 0.157565 -0.440976 0.884143 -0.154374 33 152 215
-0.701068 0.632904 0.451631 -0.674434 0.727640 0.125216 84 166 99
-0.479309 0.889051 0.157565 -0.674434 0.727640 0.125216 84 166 99
-0.903643 0.494434 0.165187 -0.674434 0.727640 0.125216 84 166 99
-0.479309 0.889051 0.157565 -0.681046 0.731903 -0.022240 84 166 99
-0.645929 0.718852 -0.341258 -0.681046 0.731903 -0.022240 84 166 99
-0.903643 0.494434 0.165187 -0.681046 0.731903 -0.022240 84 166 99
-0.645929 0.718852 -0.341258 -0.858521 0.455815 -0.234892 33 152 215
-0.899554 0.180817 -0.458341 -0.858521 0.455815 -0.234892 33 152 215
-0.903643 0.494434 0.165187 -0.858521 0.455815 -0.234892 33 152 215
-0.955177 -0.304824 -0.203633 -0.844172 -0.535849 0.015472 33 152 214
-0.626771 -0.818316 -0.069354 -0.844172 -0.535849 0.015472 33 152 215
-0.879618 -0.405399 0.435726 -0.844172 -0.535849 0.015472 33 152 215
-0.718688 -0.430838 -0.604271 -0.774424 -0.568100 -0.278443 33 152 215
-0.626771 -0.818316 -0.069354 -0.774424 -0.568100 -0.278443 33 152 215
-0.955177 -0.304824 -0.203633 -0.774424 -0.568100 -0.278443 33 152 214
-0.899554 0.180817 -0.458341 -0.871356 -0.145895 -0.468458 41 116 156
-0.718688 -0.430838 -0.604271 -0.871356 -0.145895 -0.468458 41 116 156
-0.955177 -0.304824 -0.203633 -0.871356 -0.145895 -0.468458 41 116 156
-0.718688 -0.430838 -0.604271 -0.487029 -0.744940 -0.455924 33 152 215
-0.064231 -0.804889 -0.692212 -0.487029 -0.744940 -0.455924 33 152 215
-0.626771 -0.818316 -0.069354 -0.487029 -0.744940 -0.455924 33 152 215
-0.626771 -0.818316 -0.069354 -0.473758 -0.760380 -0.444271 33 152 215
-0.064231 -0.804889 -0.692212 -0.473758 -0.760380 -0.444271 33 152 215
-0.162192 -1.004012 -0.246943 -0.473758 -0.760380 -0.444271 33 152 215
-0.162192 -1.004012 -0.246943 0.215976 -0.967096 -0.134457 83 166 99
0.320083 -0.857278 -0.527677 0.215976 -0.967096 -0.134457 84 166 99
0.172078 -1.002056 0.275912 0.215976 -0.967096 -0.134457 84 166 99
0.320083 -0.857278 -0.527677 0.292793 -0.948985 -0.117046 33 152 215
0.553294 -0.849073 -0.010821 0.292793 -0.948985 -0.117046 33 152 215
0.172078 -1.002056 0.275912 0.292793 -0.948985 -0.117046 33 152 214
0.320083 -0.857278 -0.527677 0.638687 -0.717962 -0.276785 41 116 156
0.879903 -0.459358 -0.268058 0.638687 -0.717962 -0.276785 41 116 156
0.553294 -0.849073 -0.010821 0.638687 -0.717962 -0.276785 41 116 156
0.879903 -0.459358 -0.268058 0.974634 -0.153477 -0.162888 84 166 99
0.934794 0.111209 -0.477224 0.974634 -0.153477 -0.162888 84 165 99
0.990500 -0.264086 0.209706 0.974634 -0.153477 -0.162888 84 166 98
0.990500 -0.264086 0.209706 0.997356 0.020324 -0.069777 84 166 98
0.934794 0.111209 -0.477224 0.997356 0.020324 -0.069777 84 165 99
0.985197 0.175687 0.261997 0.997356 0.020324 -0.069777 84 166 99
0.934794 0.111209 -0.477224 0.958745 0.270002 -0.088922 84 165 99
0.844115 0.599367 0.027329 0.958745 0.270002 -0.088922 84 166 99
0.985197 0.175687 0.261997 0.958745 0.270002 -0.088922 84 166 99
0.934794 0.111209 -0.477224 0.817583 0.480237 -0.317695 84 165 99
0.613380 0.608845 -0.552137 0.817583 0.480237 -0.317695 84 166 99
0.844115 0.599367 0.027329 0.817583 0.480237 -0.317695 84 166 99
0.491187 0.217637 -0.877759 0.346234 0.533923 -0.771394 33 152 215
0.022962 0.574785 -0.840716 0.346234 0.533923 -0.771394 33 152 215
0.613380 0.608845 -0.552137 0.346234 0.533923 -0.771394 33 152 215
0.022962 0.574785 -0.840716 0.280874 0.699424 -0.657203 33 152 215
-0.040757 0.857517 -0.567053 0.280874 0.699424 -0.657203 33 152 215
0.613380 0.608845 -0.552137 0.280874 0.699424 -0.657203 33 152 215
-0.054394 -0.067253 -1.018021 0.115756 0.251422 -0.960930 33 152 215
0.022962 0.574785 -0.840716 0.115756 0.251422 -0.960930 33 152 215
0.491187 0.217637 -0.877759 0.115756 0.251422 -0.960930 33 152 215
-0.054394 -0.067253 -1.018021 -0.020861 0.268471 -0.963062 33 152 215
-0.415080 0.161809 -0.946352 -0.020861 0.268471 -0.963062 33 152 215
0.022962 0.574785 -0.840716 -0.020861 0.268471 -0.963062 33 152 215
0.022962 0.574785 -0.840716 -0.212597 0.654432 -0.725618 84 166 99
-0.559328 0.409827 -0.818887 -0.212597 0.654432 -0.725618 84 165 99
-0.040757 0.857517 -0.567053 -0.212597 0.654432 -0.725618 84 166 99
-0.040757 0.857517 -0.567053 -0.376154 0.745339 -0.550433 84 166 99
-0.559328 0.409827 -0.818887 -0.376154 0.745339 -0.550433 84 165 99
-0.645929 0.718852 -0.341258 -0.376154 0.745339 -0.550433 84 166 99
-0.415080 0.161809 -0.946352 -0.143296 0.385186 -0.911646 66 143 61
-0.559328 0.409827 -0.818887 -0.143296 0.385186 -0.911646 66 143 61
0.022962 0.574785 -0.840716 -0.143296 0.385186 -0.911646 66 143 62
-0.559328 0.409827 -0.818887 -0.772934 0.459554 -0.437473 84 165 99
-0.899554 0.180817 -0.458341 -0.772934 0.459554 -0.437473 84 166 99
-0.645929 0.718852 -0.341258 -0.772934 0.459554 -0.437473 84 166 99
-0.415080 0.161809 -0.946352 -0.709731 -0.051706 -0.702572 84 166 99
-0.899554 0.180817 -0.458341 -0.709731 -0.051706 -0.702572 84 166 99
-0.559328 0.409827 -0.818887 -0.709731 -0.051706 -0.702572 84 165 99
-0.415080 0.161809 -0.946352 -0.709864 -0.042165 -0.703076 84 166 99
-0.718688 -0.430838 -0.604271 -0.709864 -0.042165 -0.703076 84 166 99
-0.899554 0.180817 -0.458341 -0.709864 -0.042165 -0.703076 84 166 99
-0.054394 -0.067253 -1.018021 -0.313006 -0.202547 -0.927902 33 152 215
-0.112111 -0.515536 -0.900698 -0.313006 -0.202547 -0.927902 33 152 215
-0.415080 0.161809 -0.946352 -0.313006 -0.202547 -0.927902 33 152 215
-0.415080 0.161809 -0.946352 -0.453028 -0.260109 -0.852707 33 152 215
-0.112111 -0.515536 -0.900698 -0.453028 -0.260109 -0.852707 33 152 215
-0.718688 -0.430838 -0.604271 -0.453028 -0.260109 -0.852707 33 152 215
-0.112111 -0.515536 -0.900698 -0.422675 -0.574800 -0.700679 33 152 215
-0.064231 -0.804889 -0.692212 -0.422675 -0.574800 -0.700679 33 152 215
-0.718688 -0.430838 -0.604271 -0.422675 -0.574800 -0.700679 33 152 215
0.934794 0.111209 -0.477224 0.674264 0.336539 -0.657350 33 152 215
0.491187 0.217637 -0.877759 0.674264 0.336539 -0.657350 33 152 215
0.613380 0.608845 -0.552137 0.674264 0.336539 -0.657350 33 152 215
0.879903 -0.459358 -0.268058 0.771867 -0.282973 -0.569340 33 152 215
0.508451 -0.306361 -0.847685 0.771867 -0.282973 -0.569340 33 152 215
0.934794 0.111209 -0.477224 0.771867 -0.282973 -0.569340 33 152 215
0.934794 0.111209 -0.477224 0.667264 -0.020745 -0.744532 33 152 215
0.508451 -0.306361 -0.847685 0.667264 -0.020745 -0.744532 33 152 215
0.491187 0.217637 -0.877759 0.667264 -0.020745 -0.744532 33 152 215
0.508451 -0.306361 -0.847685 0.271303 -0.046237 -0.961383 41 116 156
-0.054394 -0.067253 -1.018021 0.271303 -0.046237 -0.961383 41 116 156
0.491187 0.217637 -0.877759 0.271303 -0.046237 -0.961383 41 116 156
-0.064231 -0.804889 -0.692212 0.046143 -0.915647 -0.399325 33 152 215
0.320083 -0.857278 -0.527677 0.046143 -0.915647 -0.399325 33 152 215
-0.162192 -1.004012 -0.246943 0.046143 -0.915647 -0.399325 33 152 215
-0.112111 -0.515536 -0.900698 0.270604 -0.532899 -0.801743 84 166 99
0.320083 -0.857278 -0.527677 0.270604 -0.532899 -0.801743 84 166 99
-0.064231 -0.804889 -0.692212 0.270604 -0.532899 -0.801743 84 166 99
-0.054394 -0.067253 -1.018021 0.171966 -0.270079 -0.947357 33 152 215
0.508451 -0.306361 -0.847685 0.171966 -0.270079 -0.947357 33 152 215
-0.112111 -0.515536 -0.900698 0.171966 -0.270079 -0.947357 33 152 215
-0.112111 -0.515536 -0.900698 0.253151 -0.549181 -0.796439 33 152 215
0.508451 -0.306361 -0.847685 0.253151 -0.549181 -0.796439 33 152 215
0.320083 -0.857278 -0.527677 0.253151 -0.549181 -0.796439 33 152 215
0.508451 -0.306361 -0.847685 0.637954 -0.538108 -0.550867 33 152 215
0.879903 -0.459358 -0.268058 0.637954 -0.538108 -0.550867 33 152 215
0.320083 -0.857278 -0.527677 0.637954 -0.538108 -0.550867 33 152 215
3 0 1 2
3 3 4 5
3 6 7 8
3 9 10 11
3 12 13 14
3 15 16 17
3 18 19 20
3 21 22 23
3 24 25 26
3 27 28 29
3 30 31 32
3 33 34 35
3 36 37 38
3 39 40 41
3 42 43 44
3 45 46 47
3 48 49 50
3 51 52 53
3 54 55 56
3 57 58 59
3 60 61 62
3 63 64 65
3 66 67 68
3 69 70 71
3 72 73 74
3 75 76 77
3 78 79 80
3 81 82 83
3 84 85 86
3 87 88 89
3 90 91 92
3 93 94 95
3 96 97 98
3 99 100 101
3 102 103 104
3 105 106 107
3 108 109 110
3 111 112 113
3 114 115 116
3 117 118 119
3 120 121 122
3 123 124 125
3 126 127 128
3 129 130 131
3 132 133 134
3 135 136 137
3 138 139 140
3 141 142 143
3 144 145 146
3 147 148 149
3 150 151 152
3 153 154 155
3 156 157 158
3 159 160 161
3 162 163 164
3 165 166 167
3 168 169 170
3 171 172 173
3 174 175 176
3 177 178 179
3 180 181 182
3 183 184 185
3 186 187 188
3 189 190 191
3 192 193 194
3 195 196 197
3 198 199 200
3 201 202 203
3 204 205 206
3 207 208 209
3 210 211 212
3 213 214 215
3 216 217 218
3 219 220 221
3 222 223 224
3 225 226 227
3 228 229 230
3 231 232 233
3 234 235 236
3 237 238 239
3 240 241 242
3 243 244 245
