ply
format ascii 1.0
comment Created by Blender 2.75 (sub 0) - www.blender.org, source file: 'letters.blend'
element vertex 10
property float x
property float y
property float z
property float nx
property float ny
property float nz
element face 6
property list uchar uint vertex_indices
end_header
0.000000 -0.999225 0.000000 0.000000 0.000000 1.000000
0.149513 -0.849712 0.000000 0.000000 0.000000 1.000000
-0.000000 -0.700198 0.000000 0.000000 0.000000 1.000000
-0.149513 -0.849712 0.000000 0.000000 0.000000 1.000000
0.000000 -0.445751 0.000000 0.000000 0.000000 1.000000
0.139780 -0.230523 0.000000 0.000000 0.000000 1.000000
-0.139780 -0.230523 0.000000 0.000000 0.000000 1.000000
0.139780 0.759377 0.000000 0.000000 -0.000000 1.000000
-0.139780 0.759377 0.000000 0.000000 0.000000 1.000000
0.000000 0.974606 0.000000 0.000000 0.000000 1.000000
3 0 1 2
3 3 0 2
3 4 5 6
3 7 6 5
3 7 8 6
3 8 7 9
