ply
format ascii 1.0
comment Created by Blender 2.75 (sub 0) - www.blender.org, source file: 'letters.blend'
element vertex 11
property float x
property float y
property float z
property float nx
property float ny
property float nz
element face 9
property list uchar uint vertex_indices
end_header
-0.266433 -0.976981 0.000000 0.000000 0.000000 1.000000
-0.266433 -0.102761 0.000000 0.000000 0.000000 1.000000
-0.478636 0.485221 0.000000 0.000000 0.000000 1.000000
-0.266433 0.114180 0.000000 0.000000 0.000000 1.000000
0.145916 -0.045847 0.000000 -0.000000 0.000000 1.000000
0.248989 0.114180 0.000000 -0.000000 0.000000 1.000000
-0.203123 0.723940 0.000000 -0.000000 0.000000 1.000000
-0.328777 0.958091 0.000000 0.000000 0.000000 1.000000
0.478636 0.777281 0.000000 0.000000 0.000000 1.000000
0.306973 0.958091 0.000000 0.000000 0.000000 1.000000
-0.441525 -0.743914 0.000000 0.000000 0.000000 1.000000
3 0 1 2
3 1 3 2
3 4 5 3
3 3 6 2
3 2 6 7
3 8 9 7
3 10 0 2
3 1 4 3
3 6 8 7
