ply
format ascii 1.0
comment Created by Blender 2.75 (sub 0) - www.blender.org, source file: ''
element vertex 12
property float x
property float y
property float z
property float nx
property float ny
property float nz
element face 4
property list uchar uint vertex_indices
end_header
-1.001008 0.474157 -0.560259 -0.097407 0.927596 0.360662
0.000492 -0.001534 0.933669 -0.097407 0.927596 0.360662
0.825654 0.670801 -0.572668 -0.097407 0.927596 0.360662
-1.001008 0.474157 -0.560259 -0.764726 -0.548607 0.337972
0.077787 -1.035740 -0.570194 -0.764726 -0.548607 0.337972
0.000492 -0.001534 0.933669 -0.764726 -0.548607 0.337972
0.000492 -0.001534 0.933669 0.871775 -0.381597 0.307232
0.077787 -1.035740 -0.570194 0.871775 -0.381597 0.307232
0.825654 0.670801 -0.572668 0.871775 -0.381597 0.307232
-1.001008 0.474157 -0.560259 -0.006966 0.001603 -0.999974
0.825654 0.670801 -0.572668 -0.006966 0.001603 -0.999974
0.077787 -1.035740 -0.570194 -0.006966 0.001603 -0.999974
3 0 1 2
3 3 4 5
3 6 7 8
3 9 10 11
