ply
format ascii 1.0
comment Created by Blender 2.75 (sub 0) - www.blender.org, source file: 'letters.blend'
element vertex 15
property float x
property float y
property float z
property float nx
property float ny
property float nz
element face 13
property list uchar uint vertex_indices
end_header
-0.337644 0.321868 -0.000000 0.000000 0.000000 1.000000
-0.528329 0.430416 -0.000000 0.000000 0.000000 1.000000
-0.454951 -0.699720 -0.000000 0.000000 0.000000 1.000000
0.532337 -0.360969 0.000000 -0.000000 -0.000000 1.000000
0.444479 0.087936 0.000000 -0.000000 -0.000000 1.000000
0.355750 -0.197205 -0.000000 -0.000000 -0.000000 1.000000
-0.257556 0.985871 -0.000000 0.000000 -0.000000 1.000000
0.001540 0.050128 -0.000000 -0.000000 -0.000000 1.000000
0.190777 0.735412 -0.000000 0.000000 0.000000 1.000000
0.507469 0.577218 -0.000000 0.000000 0.000000 1.000000
0.271029 0.963002 -0.000000 0.000000 0.000000 1.000000
0.213769 -0.743603 -0.000000 -0.000000 0.000000 1.000000
0.276343 -0.993553 -0.000000 0.000000 0.000000 1.000000
-0.287359 -0.528282 -0.000000 0.000000 0.000000 1.000000
-0.139980 0.772494 -0.000000 -0.000000 -0.000000 1.000000
3 0 1 2
3 3 4 5
3 6 1 0
3 5 4 7
3 8 9 10
3 3 5 11
3 12 11 13
3 10 6 14
3 13 0 2
3 14 6 0
3 12 3 11
3 2 12 13
3 8 10 14
