ply
format ascii 1.0
comment Created by Blender 2.75 (sub 0) - www.blender.org, source file: 'letters.blend'
element vertex 12
property float x
property float y
property float z
property float nx
property float ny
property float nz
element face 10
property list uchar uint vertex_indices
end_header
-0.311507 -0.986633 -0.000000 0.000000 0.000000 1.000000
-0.316996 -0.019328 -0.000000 0.000000 0.000000 1.000000
-0.496552 -0.830088 -0.000000 0.000000 0.000000 1.000000
0.498091 -0.782049 -0.000000 0.000000 0.000000 1.000000
0.474216 0.779340 -0.000000 0.000000 0.000000 1.000000
0.331112 -0.110381 -0.000000 0.000000 0.000000 1.000000
-0.300530 0.167264 -0.000000 -0.000000 -0.000000 1.000000
-0.447323 0.733073 0.000000 -0.000000 -0.000000 1.000000
-0.296870 0.965420 0.000000 0.000000 -0.000000 1.000000
0.299094 -0.952674 0.000000 0.000000 0.000000 1.000000
0.331112 0.099397 -0.000000 0.000000 0.000000 1.000000
0.295745 0.986136 -0.000000 0.000000 0.000000 1.000000
3 0 1 2
3 3 4 5
3 1 6 7
3 6 8 7
3 9 3 5
3 2 1 7
3 5 4 10
3 5 10 6
3 10 4 11
3 1 5 6
