ply
format ascii 1.0
comment Created by Blender 2.75 (sub 0) - www.blender.org, source file: 'letters.blend'
element vertex 13
property float x
property float y
property float z
property float nx
property float ny
property float nz
element face 11
property list uchar uint vertex_indices
end_header
0.352237 -0.901298 -0.000000 0.000000 -0.000000 1.000000
0.081945 -0.759669 0.000000 0.000000 -0.000000 1.000000
-0.155925 -0.792864 0.000000 0.000000 -0.000000 1.000000
0.047014 -0.027198 -0.000000 -0.000000 0.000000 1.000000
-0.491087 0.939764 -0.000000 0.000000 0.000000 1.000000
-0.575271 0.749042 0.000000 0.000000 0.000000 1.000000
-0.136953 0.764682 0.000000 0.000000 0.000000 1.000000
0.048599 0.764682 -0.000000 0.000000 -0.000000 1.000000
0.512757 0.812490 0.000000 -0.000000 0.000000 1.000000
0.282034 0.955718 -0.000000 -0.000000 0.000000 1.000000
-0.438229 -1.002113 0.000000 0.000000 0.000000 1.000000
0.584669 -0.705759 0.000000 0.000000 -0.000000 1.000000
-0.584669 -0.816508 -0.000000 -0.000000 0.000000 1.000000
3 0 1 2
3 2 1 3
3 4 5 6
3 2 3 6
3 3 7 6
3 8 9 4
3 10 0 2
3 6 7 4
3 11 1 0
3 7 8 4
3 12 10 2
