ply
format ascii 1.0
comment Created by Blender 2.76 (sub 0) - www.blender.org, source file: ''
element vertex 27
property float x
property float y
property float z
property float nx
property float ny
property float nz
property uchar red
property uchar green
property uchar blue
element face 13
property list uchar uint vertex_indices
end_header
0.717280 0.414122 0.000000 0.000000 -0.000000 1.000000 177 186 186
0.717280 -0.414122 0.000000 0.000000 -0.000000 1.000000 177 186 186
0.866025 -0.500000 0.000000 0.000000 -0.000000 1.000000 177 186 186
0.000000 -0.828243 0.000000 -0.000000 0.000000 1.000000 177 186 186
-0.717280 -0.414122 0.000000 -0.000000 0.000000 1.000000 177 186 186
-0.866025 -0.500000 0.000000 -0.000000 0.000000 1.000000 177 186 186
-0.717280 0.414122 0.000000 0.000000 0.000000 1.000000 177 186 186
0.000000 0.828243 0.000000 0.000000 0.000000 1.000000 177 186 186
0.000000 1.000000 0.000000 0.000000 0.000000 1.000000 177 186 186
0.866025 0.500000 0.000000 0.000000 0.000000 1.000000 177 186 186
0.000000 -1.000000 0.000000 0.000000 -0.000000 1.000000 177 186 186
-0.866025 0.500000 0.000000 0.000000 0.000000 1.000000 177 186 186
0.408446 0.235817 0.000000 0.000000 -0.000000 1.000000 51 104 173
-0.408446 0.235817 0.000000 0.000000 -0.000000 1.000000 51 104 173
0.000000 -0.471633 0.000000 0.000000 -0.000000 1.000000 51 104 173
0.866025 0.500000 0.000000 0.000000 -0.000000 1.000000 199 204 204
0.717280 0.414122 0.000000 0.000000 -0.000000 1.000000 199 204 204
0.866025 -0.500000 0.000000 0.000000 -0.000000 1.000000 199 204 204
0.000000 -1.000000 0.000000 0.000000 0.000000 1.000000 199 204 204
0.000000 -0.828243 0.000000 0.000000 0.000000 1.000000 199 204 204
-0.866025 -0.500000 0.000000 0.000000 0.000000 1.000000 199 204 204
-0.866025 0.500000 0.000000 0.000000 0.000000 1.000000 199 204 204
-0.717280 0.414122 0.000000 0.000000 0.000000 1.000000 199 204 204
0.000000 1.000000 0.000000 0.000000 0.000000 1.000000 199 204 204
0.000000 0.828243 0.000000 0.000000 0.000000 1.000000 199 204 204
0.717280 -0.414122 0.000000 -0.000000 0.000000 1.000000 199 204 204
-0.717280 -0.414122 0.000000 0.000000 0.000000 1.000000 199 204 204
3 0 1 2
3 3 4 5
3 6 7 8
3 7 0 9
3 1 3 10
3 4 6 11
3 12 13 14
3 15 16 17
3 18 19 20
3 21 22 23
3 23 24 15
3 17 25 18
3 20 26 21
