ply
format ascii 1.0
comment Created by Blender 2.75 (sub 0) - www.blender.org, source file: ''
element vertex 15
property float x
property float y
property float z
property float nx
property float ny
property float nz
element face 11
property list uchar uint vertex_indices
end_header
-0.542642 -0.536859 0.000000 0.000000 0.000000 1.000000
-0.448077 -0.946053 0.000000 0.000000 0.000000 1.000000
-0.326040 -0.745709 0.000000 0.000000 0.000000 1.000000
0.064580 -0.834998 0.000000 0.000000 0.000000 1.000000
0.167462 -1.022030 0.000000 0.000000 0.000000 1.000000
0.269213 -0.756201 0.000000 0.000000 0.000000 1.000000
-0.416538 -0.231943 0.000000 0.000000 0.000000 1.000000
0.121897 0.703152 0.000000 0.000000 -0.000000 1.000000
-0.095471 0.681365 0.000000 0.000000 -0.000000 1.000000
0.260639 0.912409 0.000000 0.000000 -0.000000 1.000000
-0.265553 0.886736 0.000000 0.000000 -0.000000 1.000000
0.121897 0.703152 0.000000 0.000000 -0.000000 1.000000
-0.265553 0.886736 0.000000 0.000000 0.000000 1.000000
-0.517984 0.688628 0.000000 0.000000 0.000000 1.000000
0.484742 0.756353 0.000000 -0.000000 0.000000 1.000000
3 0 1 2
3 3 4 5
3 0 2 6
3 3 2 1
3 7 8 3
3 9 10 11
3 12 8 7
3 13 8 12
3 4 3 1
3 5 7 3
3 14 9 11
