ply
format ascii 1.0
comment Created by Blender 2.75 (sub 0) - www.blender.org, source file: ''
element vertex 20
property float x
property float y
property float z
property float nx
property float ny
property float nz
property uchar red
property uchar green
property uchar blue
element face 20
property list uchar uint vertex_indices
end_header
0.617794 0.000000 0.000000 0.000000 -0.000000 1.000000 84 84 84
0.601610 -0.437095 0.000000 0.000000 -0.000000 1.000000 84 84 84
0.743631 0.000000 0.000000 0.000000 -0.000000 1.000000 84 84 84
0.190909 -0.587557 0.000000 0.000000 0.000000 1.000000 84 84 84
0.499806 -0.363130 0.000000 0.000000 0.000000 1.000000 84 84 84
-0.190909 -0.587557 0.000000 0.000000 0.000000 1.000000 84 84 84
0.229795 -0.707235 0.000000 0.000000 0.000000 1.000000 84 84 84
-0.601610 -0.437095 0.000000 -0.000000 -0.000000 1.000000 84 84 84
-0.229795 -0.707235 0.000000 -0.000000 -0.000000 1.000000 84 84 84
-0.617794 0.000000 0.000000 0.000000 0.000000 1.000000 84 84 84
-0.499806 -0.363130 0.000000 0.000000 0.000000 1.000000 84 84 84
-0.601610 0.437095 0.000000 -0.000000 0.000000 1.000000 84 84 84
-0.743631 0.000000 0.000000 -0.000000 0.000000 1.000000 84 84 84
0.190909 0.587557 0.000000 -0.000000 -0.000000 1.000000 84 84 84
-0.229795 0.707235 0.000000 -0.000000 -0.000000 1.000000 84 84 84
-0.190909 0.587557 0.000000 -0.000000 -0.000000 1.000000 84 84 84
-0.499806 0.363130 0.000000 0.000000 -0.000000 1.000000 84 84 84
0.601610 0.437095 0.000000 0.000000 0.000000 1.000000 84 84 84
0.229795 0.707235 0.000000 0.000000 0.000000 1.000000 84 84 84
0.499806 0.363130 0.000000 0.000000 0.000000 1.000000 84 84 84
3 0 1 2
3 3 1 4
3 5 6 3
3 5 7 8
3 9 7 10
3 9 11 12
3 13 14 15
3 15 11 16
3 13 17 18
3 17 0 2
3 4 1 0
3 6 1 3
3 8 6 5
3 10 7 5
3 12 7 9
3 16 11 9
3 18 14 13
3 14 11 15
3 19 17 13
3 19 0 17
