ply
format ascii 1.0
comment Created by Blender 2.75 (sub 0) - www.blender.org, source file: ''
element vertex 30
property float x
property float y
property float z
property float nx
property float ny
property float nz
property uchar red
property uchar green
property uchar blue
element face 16
property list uchar uint vertex_indices
end_header
-0.408675 -0.000000 -0.000000 0.866025 0.500000 0.000000 94 94 94
-0.408675 -0.000000 0.163519 0.866025 0.500000 0.000000 94 94 94
-0.204338 -0.353923 0.163519 0.866025 0.500000 0.000000 94 94 94
-0.204338 0.353923 -0.000000 0.000000 1.000000 0.000000 94 94 94
-0.204338 0.353923 0.163519 0.000000 1.000000 0.000000 94 94 94
0.204338 0.353923 0.163519 0.000000 1.000000 0.000000 94 94 94
-0.408675 -0.000000 -0.000000 -0.866025 0.500000 0.000000 94 94 94
-0.408675 -0.000000 0.163519 -0.866025 0.500000 0.000000 94 94 94
-0.204338 0.353923 0.163519 -0.866025 0.500000 0.000000 94 94 94
0.204338 -0.353923 -0.000000 -0.000000 -1.000000 -0.000000 94 94 94
0.204338 -0.353923 0.163519 -0.000000 -1.000000 -0.000000 94 94 94
-0.204338 -0.353923 0.163519 -0.000000 -1.000000 -0.000000 94 94 94
-0.204338 -0.353923 0.163519 0.000000 0.000000 1.000000 94 94 94
0.408675 -0.000000 0.163519 0.000000 0.000000 1.000000 94 94 94
-0.204338 0.353923 0.163519 0.000000 0.000000 1.000000 94 94 94
0.408675 -0.000000 -0.000000 0.866025 -0.500000 0.000000 94 94 94
0.408675 -0.000000 0.163519 0.866025 -0.500000 0.000000 94 94 94
0.204338 -0.353923 0.163519 0.866025 -0.500000 0.000000 94 94 94
0.204338 0.353923 -0.000000 0.866026 0.500000 0.000000 94 94 94
0.204338 0.353923 0.163519 0.866026 0.500000 0.000000 94 94 94
0.408675 -0.000000 0.163519 0.866026 0.500000 0.000000 94 94 94
-0.204338 -0.353923 -0.000000 0.866025 0.500000 0.000000 94 94 94
0.204338 0.353923 -0.000000 -0.000000 1.000000 0.000000 94 94 94
-0.204338 0.353923 -0.000000 -0.866025 0.500000 0.000000 94 94 94
-0.204338 -0.353923 -0.000000 -0.000000 -1.000000 0.000000 94 94 94
-0.408675 -0.000000 0.163519 0.000000 -0.000000 1.000000 94 94 94
0.204338 0.353923 0.163519 -0.000000 0.000000 1.000000 94 94 94
0.204338 -0.353923 0.163519 0.000000 0.000000 1.000000 94 94 94
0.204338 -0.353923 -0.000000 0.866025 -0.500000 0.000000 94 94 94
0.408675 -0.000000 -0.000000 0.866026 0.500000 0.000000 94 94 94
3 0 1 2
3 3 4 5
3 6 7 8
3 9 10 11
3 12 13 14
3 15 16 17
3 18 19 20
3 21 0 2
3 22 3 5
3 23 6 8
3 24 9 11
3 14 25 12
3 13 26 14
3 12 27 13
3 28 15 17
3 29 18 20
