ply
format ascii 1.0
comment Created by Blender 2.75 (sub 0) - www.blender.org, source file: 'letters.blend'
element vertex 13
property float x
property float y
property float z
property float nx
property float ny
property float nz
element face 11
property list uchar uint vertex_indices
end_header
0.543311 -0.988539 0.000000 -0.000000 -0.000000 1.000000
0.281336 -0.266614 0.000000 -0.000000 -0.000000 1.000000
0.093308 -0.371007 -0.000000 -0.000000 -0.000000 1.000000
0.258128 0.356412 -0.000000 0.000000 0.000000 1.000000
-0.273885 0.302188 -0.000000 0.000000 0.000000 1.000000
-0.249901 0.071181 -0.000000 0.000000 0.000000 1.000000
-0.514774 0.717733 -0.000000 -0.000000 -0.000000 1.000000
-0.239950 -0.147038 -0.000000 -0.000000 -0.000000 1.000000
-0.314892 0.969878 -0.000000 0.000000 0.000000 1.000000
0.060399 0.469835 -0.000000 0.000000 -0.000000 1.000000
0.474257 0.964755 0.000000 0.000000 -0.000000 1.000000
-0.293264 -0.963486 -0.000000 0.000000 0.000000 1.000000
-0.465217 -0.710621 -0.000000 0.000000 0.000000 1.000000
3 0 1 2
3 3 4 5
3 5 6 7
3 6 4 8
3 3 9 4
3 3 10 9
3 4 6 5
3 7 2 5
3 11 7 12
3 5 2 1
3 12 7 6
