ply
format ascii 1.0
comment Created by Blender 2.75 (sub 0) - www.blender.org, source file: 'letters.blend'
element vertex 9
property float x
property float y
property float z
property float nx
property float ny
property float nz
element face 7
property list uchar uint vertex_indices
end_header
-0.501377 -0.744317 0.000000 -0.000000 -0.000000 1.000000
-0.373651 -0.957461 0.000000 -0.000000 -0.000000 1.000000
-0.262854 -0.757339 0.000000 -0.000000 -0.000000 1.000000
0.182632 -0.976524 0.000000 0.000000 0.000000 1.000000
0.501377 -0.848870 -0.000000 0.000000 0.000000 1.000000
-0.299596 0.017786 0.000000 -0.000000 0.000000 1.000000
-0.272346 0.973954 0.000000 0.000000 0.000000 1.000000
-0.467390 0.565715 0.000000 0.000000 0.000000 1.000000
-0.501377 0.017786 0.000000 0.000000 -0.000000 1.000000
3 0 1 2
3 3 4 2
3 0 2 5
3 5 6 7
3 1 3 2
3 8 0 5
3 8 5 7
