ply
format ascii 1.0
comment Created by Blender 2.75 (sub 0) - www.blender.org, source file: 'letters.blend'
element vertex 12
property float x
property float y
property float z
property float nx
property float ny
property float nz
element face 10
property list uchar uint vertex_indices
end_header
0.587412 -0.677327 -0.000000 0.000000 -0.000000 1.000000
0.517830 0.982369 0.000000 0.000000 -0.000000 1.000000
0.438901 -1.017631 0.000000 0.000000 -0.000000 1.000000
-0.421260 -1.017631 0.000000 0.000000 0.000000 1.000000
-0.367358 0.687507 0.000000 0.000000 0.000000 1.000000
-0.539390 0.973221 0.000000 0.000000 0.000000 1.000000
0.000510 -0.207990 0.000000 0.000000 0.000000 1.000000
0.025991 0.146306 -0.000000 0.000000 0.000000 1.000000
-0.269645 0.935867 0.000000 0.000000 0.000000 1.000000
0.255435 0.906136 -0.000000 -0.000000 0.000000 1.000000
0.345798 0.696655 0.000000 -0.000000 0.000000 1.000000
-0.587412 -0.798080 0.000000 0.000000 0.000000 1.000000
3 0 1 2
3 3 4 5
3 6 7 8
3 6 9 7
3 10 1 9
3 8 4 6
3 9 6 10
3 11 3 5
3 2 1 10
3 4 8 5
