ply
format ascii 1.0
comment Created by Blender 2.75 (sub 0) - www.blender.org, source file: ''
element vertex 240
property float x
property float y
property float z
property float nx
property float ny
property float nz
property uchar red
property uchar green
property uchar blue
element face 80
property list uchar uint vertex_indices
end_header
-0.003690 0.000672 -0.996238 0.034133 -0.297940 -0.953974 158 158 158
0.442523 -0.317925 -0.880770 0.034133 -0.297940 -0.953974 158 158 158
-0.172108 -0.502189 -0.845213 0.034133 -0.297940 -0.953974 158 158 158
0.739720 -0.525356 -0.445184 0.750724 -0.227093 -0.620357 173 173 173
0.442523 -0.317925 -0.880770 0.750724 -0.227093 -0.620357 173 173 173
0.854790 0.020883 -0.505893 0.750724 -0.227093 -0.620357 173 173 173
-0.003690 0.000672 -0.996238 -0.270781 -0.192577 -0.943182 158 123 125
-0.172108 -0.502189 -0.845213 -0.270781 -0.192577 -0.943182 158 123 125
-0.547452 -0.005363 -0.838895 -0.270781 -0.192577 -0.943182 158 123 125
-0.003690 0.000672 -0.996238 -0.274439 0.198896 -0.940810 158 123 125
-0.547452 -0.005363 -0.838895 -0.274439 0.198896 -0.940810 158 123 125
-0.168575 0.503453 -0.841847 -0.274439 0.198896 -0.940810 158 123 125
-0.003690 0.000672 -0.996238 0.100867 0.322129 -0.941307 173 173 173
-0.168575 0.503453 -0.841847 0.100867 0.322129 -0.941307 173 173 173
0.426491 0.318078 -0.841520 0.100867 0.322129 -0.941307 173 173 173
0.739720 -0.525356 -0.445184 0.927553 -0.228279 -0.295861 163 139 140
0.854790 0.020883 -0.505893 0.927553 -0.228279 -0.295861 161 133 135
0.959646 -0.264110 0.042735 0.927553 -0.228279 -0.295861 164 145 146
-0.299980 -0.857879 -0.435489 0.036614 -0.946969 -0.319233 145 145 145
0.258776 -0.807533 -0.520751 0.036614 -0.946969 -0.319233 145 145 145
-0.019048 -0.999297 0.016230 0.036614 -0.946969 -0.319233 145 145 145
-0.963258 -0.016758 -0.409800 -0.871454 -0.326424 -0.366080 173 173 173
-0.739206 -0.514044 -0.499741 -0.871454 -0.326424 -0.366080 173 173 173
-1.040920 -0.327167 0.051857 -0.871454 -0.326424 -0.366080 173 173 173
-0.286822 0.869410 -0.418268 -0.564966 0.743777 -0.357225 158 158 158
-0.727553 0.496442 -0.497791 -0.564966 0.743777 -0.357225 158 158 158
-0.630153 0.844072 0.071967 -0.564966 0.743777 -0.357225 158 158 158
0.731247 0.564988 -0.409920 0.519705 0.764948 -0.380475 158 125 127
0.266230 0.837708 -0.496798 0.519705 0.764948 -0.380475 158 123 125
0.603540 0.897864 0.084889 0.519705 0.764948 -0.380475 158 123 125
0.739720 -0.525356 -0.445184 0.817879 -0.571997 -0.062388 158 158 158
0.959646 -0.264110 0.042735 0.817879 -0.571997 -0.062388 158 158 158
0.587670 -0.793238 0.017544 0.817879 -0.571997 -0.062388 158 158 158
-0.299980 -0.857879 -0.435489 -0.267414 -0.954430 -0.132490 145 145 145
-0.019048 -0.999297 0.016230 -0.267414 -0.954430 -0.132490 145 145 145
-0.654950 -0.824130 0.037850 -0.267414 -0.954430 -0.132490 145 145 145
-0.963258 -0.016758 -0.409800 -0.983813 -0.018890 -0.178201 173 173 173
-1.040920 -0.327167 0.051857 -0.983813 -0.018890 -0.178201 173 173 173
-1.054935 0.312810 0.061392 -0.983813 -0.018890 -0.178201 173 173 173
-0.286822 0.869410 -0.418268 -0.339084 0.921401 -0.189850 158 158 158
-0.630153 0.844072 0.071967 -0.339084 0.921401 -0.189850 158 158 158
0.004032 1.079925 0.083938 -0.339084 0.921401 -0.189850 158 158 158
0.731247 0.564988 -0.409920 0.802127 0.570408 -0.176711 173 173 173
0.603540 0.897864 0.084889 0.802127 0.570408 -0.176711 173 173 173
0.965781 0.384199 0.071110 0.802127 0.570408 -0.176711 173 173 173
0.266595 -0.823971 0.486069 0.403269 -0.681386 0.610808 145 145 145
0.718378 -0.441446 0.614517 0.403269 -0.681386 0.610808 145 145 145
0.157466 -0.431782 0.995624 0.403269 -0.681386 0.610808 145 145 145
-0.808775 -0.527872 0.513382 -0.469515 -0.594439 0.652838 173 173 173
-0.323865 -0.821595 0.594677 -0.469515 -0.594439 0.652838 173 173 173
-0.499605 -0.256129 0.983168 -0.469515 -0.594439 0.652838 173 173 173
-0.803379 0.588279 0.567410 -0.731590 0.236074 0.639566 158 123 125
-0.937303 0.025485 0.621951 -0.731590 0.236074 0.639566 158 123 125
-0.480013 0.409542 1.003278 -0.731590 0.236074 0.639566 158 123 125
0.292249 0.986115 0.581828 0.013329 0.779972 0.625673 145 145 145
-0.282047 0.926442 0.668451 0.013329 0.779972 0.625673 145 145 145
0.167071 0.647286 1.006883 0.013329 0.779972 0.625673 145 145 145
0.912616 0.101343 0.543695 0.793925 0.183656 0.579615 158 123 125
0.710068 0.632678 0.652776 0.793925 0.183656 0.579615 158 123 125
0.559270 0.137855 1.016120 0.793925 0.183656 0.579615 158 123 125
0.559270 0.137855 1.016120 0.243029 0.204296 0.948262 158 158 158
0.167071 0.647286 1.006883 0.243029 0.204296 0.948262 158 158 158
-0.020884 0.127098 1.167124 0.243029 0.204296 0.948262 158 158 158
0.559270 0.137855 1.016120 0.507218 0.404295 0.761102 158 158 158
0.710068 0.632678 0.652776 0.507218 0.404295 0.761102 158 158 158
0.167071 0.647286 1.006883 0.507218 0.404295 0.761102 158 158 158
0.710068 0.632678 0.652776 0.432263 0.638771 0.636491 158 158 158
0.292249 0.986115 0.581828 0.432263 0.638771 0.636491 158 158 158
0.167071 0.647286 1.006883 0.432263 0.638771 0.636491 158 158 158
0.167071 0.647286 1.006883 -0.127876 0.333888 0.933899 173 173 173
-0.480013 0.409542 1.003278 -0.127876 0.333888 0.933899 173 173 173
-0.020884 0.127098 1.167124 -0.127876 0.333888 0.933899 173 173 173
0.167071 0.647286 1.006883 -0.220507 0.588371 0.777944 173 173 173
-0.282047 0.926442 0.668451 -0.220507 0.588371 0.777944 173 173 173
-0.480013 0.409542 1.003278 -0.220507 0.588371 0.777944 173 173 173
-0.282047 0.926442 0.668451 -0.507598 0.596885 0.621347 173 173 173
-0.803379 0.588279 0.567410 -0.507598 0.596885 0.621347 173 173 173
-0.480013 0.409542 1.003278 -0.507598 0.596885 0.621347 173 173 173
-0.480013 0.409542 1.003278 -0.345938 -0.018158 0.938082 158 158 158
-0.499605 -0.256129 0.983168 -0.345938 -0.018158 0.938082 158 158 158
-0.020884 0.127098 1.167124 -0.345938 -0.018158 0.938082 158 158 158
-0.480013 0.409542 1.003278 -0.638209 -0.004473 0.769851 158 123 125
-0.937303 0.025485 0.621951 -0.638209 -0.004473 0.769851 158 123 125
-0.499605 -0.256129 0.983168 -0.638209 -0.004473 0.769851 158 123 125
-0.937303 0.025485 0.621951 -0.713328 -0.290794 0.637653 158 123 125
-0.808775 -0.527872 0.513382 -0.713328 -0.290794 0.637653 158 123 125
-0.499605 -0.256129 0.983168 -0.713328 -0.290794 0.637653 158 123 125
-0.499605 -0.256129 0.983168 -0.103900 -0.321930 0.941045 145 145 145
0.157466 -0.431782 0.995624 -0.103900 -0.321930 0.941045 145 145 145
-0.020884 0.127098 1.167124 -0.103900 -0.321930 0.941045 145 145 145
-0.499605 -0.256129 0.983168 -0.173620 -0.593753 0.785693 145 145 145
-0.323865 -0.821595 0.594677 -0.173620 -0.593753 0.785693 145 145 145
0.157466 -0.431782 0.995624 -0.173620 -0.593753 0.785693 145 145 145
-0.323865 -0.821595 0.594677 0.111100 -0.775908 0.620986 173 173 173
0.266595 -0.823971 0.486069 0.111100 -0.775908 0.620986 173 173 173
0.157466 -0.431782 0.995624 0.111100 -0.775908 0.620986 173 173 173
0.157466 -0.431782 0.995624 0.249908 -0.210285 0.945159 158 158 158
0.559270 0.137855 1.016120 0.249908 -0.210285 0.945159 158 158 158
-0.020884 0.127098 1.167124 0.249908 -0.210285 0.945159 158 158 158
0.157466 -0.431782 0.995624 0.513035 -0.389403 0.764958 145 145 145
0.718378 -0.441446 0.614517 0.513035 -0.389403 0.764958 145 145 145
0.559270 0.137855 1.016120 0.513035 -0.389403 0.764958 145 145 145
0.718378 -0.441446 0.614517 0.777089 -0.200228 0.596692 158 123 125
0.912616 0.101343 0.543695 0.777089 -0.200228 0.596692 158 123 125
0.559270 0.137855 1.016120 0.777089 -0.200228 0.596692 158 123 125
0.965781 0.384199 0.071110 0.915256 0.291896 0.277674 173 173 173
0.710068 0.632678 0.652776 0.915256 0.291896 0.277674 173 173 173
0.912616 0.101343 0.543695 0.915256 0.291896 0.277674 173 173 173
0.965781 0.384199 0.071110 0.813349 0.570528 0.113846 173 173 173
0.603540 0.897864 0.084889 0.813349 0.570528 0.113846 173 173 173
0.710068 0.632678 0.652776 0.813349 0.570528 0.113846 173 173 173
0.603540 0.897864 0.084889 0.602301 0.760637 0.242211 173 173 173
0.292249 0.986115 0.581828 0.602301 0.760637 0.242211 173 173 173
0.710068 0.632678 0.652776 0.602301 0.760637 0.242211 173 173 173
0.004032 1.079925 0.083938 -0.067524 0.972627 0.222345 158 158 158
-0.282047 0.926442 0.668451 -0.067524 0.972627 0.222345 158 158 158
0.292249 0.986115 0.581828 -0.067524 0.972627 0.222345 157 157 157
0.004032 1.079925 0.083938 -0.348839 0.934211 0.074573 158 158 158
-0.630153 0.844072 0.071967 -0.348839 0.934211 0.074573 158 158 158
-0.282047 0.926442 0.668451 -0.348839 0.934211 0.074573 158 158 158
-0.630153 0.844072 0.071967 -0.560478 0.799312 0.216713 145 145 145
-0.803379 0.588279 0.567410 -0.560478 0.799312 0.216713 145 145 145
-0.282047 0.926442 0.668451 -0.560478 0.799312 0.216713 145 145 145
-1.054935 0.312810 0.061392 -0.914476 0.248556 0.319302 158 123 125
-0.937303 0.025485 0.621951 -0.914476 0.248556 0.319302 158 123 125
-0.803379 0.588279 0.567410 -0.914476 0.248556 0.319302 158 123 125
-1.054935 0.312810 0.061392 -0.980830 -0.024361 0.193338 145 145 145
-1.040920 -0.327167 0.051857 -0.980830 -0.024361 0.193338 145 145 145
-0.937303 0.025485 0.621951 -0.980830 -0.024361 0.193338 145 145 145
-1.040920 -0.327167 0.051857 -0.901606 -0.274937 0.333941 173 173 173
-0.808775 -0.527872 0.513382 -0.901606 -0.274937 0.333941 173 173 173
-0.937303 0.025485 0.621951 -0.901606 -0.274937 0.333941 173 173 173
-0.654950 -0.824130 0.037850 -0.529606 -0.786186 0.318480 173 173 173
-0.323865 -0.821595 0.594677 -0.529606 -0.786186 0.318480 173 173 173
-0.808775 -0.527872 0.513382 -0.529606 -0.786186 0.318480 173 173 173
-0.654950 -0.824130 0.037850 -0.257289 -0.953442 0.157323 173 173 173
-0.019048 -0.999297 0.016230 -0.257289 -0.953442 0.157323 173 173 173
-0.323865 -0.821595 0.594677 -0.257289 -0.953442 0.157323 173 173 173
-0.019048 -0.999297 0.016230 0.054975 -0.945965 0.319575 158 158 158
0.266595 -0.823971 0.486069 0.054975 -0.945965 0.319575 158 158 158
-0.323865 -0.821595 0.594677 0.054975 -0.945965 0.319575 158 158 158
0.587670 -0.793238 0.017544 0.553834 -0.764709 0.329375 145 145 145
0.718378 -0.441446 0.614517 0.553834 -0.764709 0.329375 145 145 145
0.266595 -0.823971 0.486069 0.553834 -0.764709 0.329375 145 145 145
0.587670 -0.793238 0.017544 0.803703 -0.572691 0.161511 145 145 145
0.959646 -0.264110 0.042735 0.803703 -0.572691 0.161511 145 145 145
0.718378 -0.441446 0.614517 0.803703 -0.572691 0.161511 145 145 145
0.959646 -0.264110 0.042735 0.911121 -0.287519 0.295282 147 127 128
0.912616 0.101343 0.543695 0.911121 -0.287519 0.295282 147 128 129
0.718378 -0.441446 0.614517 0.911121 -0.287519 0.295282 145 128 129
0.603540 0.897864 0.084889 0.290541 0.956786 0.012086 158 123 125
0.004032 1.079925 0.083938 0.290541 0.956786 0.012086 159 126 127
0.292249 0.986115 0.581828 0.290541 0.956786 0.012086 160 130 132
0.603540 0.897864 0.084889 0.281074 0.924197 -0.258567 158 123 125
0.266230 0.837708 -0.496798 0.281074 0.924197 -0.258567 158 123 125
0.004032 1.079925 0.083938 0.281074 0.924197 -0.258567 159 126 127
0.266230 0.837708 -0.496798 -0.001874 0.922637 -0.385665 145 145 145
-0.286822 0.869410 -0.418268 -0.001874 0.922637 -0.385665 145 145 145
0.004032 1.079925 0.083938 -0.001874 0.922637 -0.385665 145 145 145
-0.630153 0.844072 0.071967 -0.780575 0.623154 0.048811 145 145 145
-1.054935 0.312810 0.061392 -0.780575 0.623154 0.048811 145 145 145
-0.803379 0.588279 0.567410 -0.780575 0.623154 0.048811 145 145 145
-0.630153 0.844072 0.071967 -0.755395 0.608816 -0.242327 145 145 145
-0.727553 0.496442 -0.497791 -0.755395 0.608816 -0.242327 145 145 145
-1.054935 0.312810 0.061392 -0.755395 0.608816 -0.242327 145 145 145
-0.727553 0.496442 -0.497791 -0.858514 0.326508 -0.395407 173 173 173
-0.963258 -0.016758 -0.409800 -0.858514 0.326508 -0.395407 173 173 173
-1.054935 0.312810 0.061392 -0.858514 0.326508 -0.395407 173 173 173
-1.040920 -0.327167 0.051857 -0.781581 -0.610616 0.127591 173 173 173
-0.654950 -0.824130 0.037850 -0.781581 -0.610616 0.127591 173 173 173
-0.808775 -0.527872 0.513382 -0.781581 -0.610616 0.127591 173 173 173
-1.040920 -0.327167 0.051857 -0.773164 -0.594238 -0.221583 145 145 145
-0.739206 -0.514044 -0.499741 -0.773164 -0.594238 -0.221583 145 145 145
-0.654950 -0.824130 0.037850 -0.773164 -0.594238 -0.221583 145 145 145
-0.739206 -0.514044 -0.499741 -0.543949 -0.760947 -0.353667 145 145 145
-0.299980 -0.857879 -0.435489 -0.543949 -0.760947 -0.353667 145 145 145
-0.654950 -0.824130 0.037850 -0.543949 -0.760947 -0.353667 145 145 145
-0.019048 -0.999297 0.016230 0.317342 -0.935373 0.156114 158 158 158
0.587670 -0.793238 0.017544 0.317342 -0.935373 0.156114 158 158 158
0.266595 -0.823971 0.486069 0.317342 -0.935373 0.156114 158 158 158
-0.019048 -0.999297 0.016230 0.317286 -0.933136 -0.169078 158 158 158
0.258776 -0.807533 -0.520751 0.317286 -0.933136 -0.169078 158 158 158
0.587670 -0.793238 0.017544 0.317286 -0.933136 -0.169078 158 158 158
0.258776 -0.807533 -0.520751 0.517587 -0.803200 -0.294911 158 125 126
0.739720 -0.525356 -0.445184 0.517587 -0.803200 -0.294911 158 125 126
0.587670 -0.793238 0.017544 0.517587 -0.803200 -0.294911 158 123 125
0.959646 -0.264110 0.042735 0.994528 -0.013943 0.103538 147 127 128
0.965781 0.384199 0.071110 0.994528 -0.013943 0.103538 154 125 126
0.912616 0.101343 0.543695 0.994528 -0.013943 0.103538 147 128 129
0.959646 -0.264110 0.042735 0.982120 -0.001055 -0.188255 164 145 146
0.854790 0.020883 -0.505893 0.982120 -0.001055 -0.188255 161 133 135
0.965781 0.384199 0.071110 0.982120 -0.001055 -0.188255 160 131 133
0.854790 0.020883 -0.505893 0.902222 0.264887 -0.340339 145 145 145
0.731247 0.564988 -0.409920 0.902222 0.264887 -0.340339 145 145 145
0.965781 0.384199 0.071110 0.902222 0.264887 -0.340339 145 145 145
0.426491 0.318078 -0.841520 0.466730 0.584346 -0.663854 145 145 145
0.266230 0.837708 -0.496798 0.466730 0.584346 -0.663854 145 145 145
0.731247 0.564988 -0.409920 0.466730 0.584346 -0.663854 145 145 145
0.426491 0.318078 -0.841520 0.181713 0.581913 -0.792690 158 158 158
-0.168575 0.503453 -0.841847 0.181713 0.581913 -0.792690 158 158 158
0.266230 0.837708 -0.496798 0.181713 0.581913 -0.792690 158 158 158
-0.168575 0.503453 -0.841847 -0.050947 0.748637 -0.661020 158 158 158
-0.286822 0.869410 -0.418268 -0.050947 0.748637 -0.661020 158 158 158
0.266230 0.837708 -0.496798 -0.050947 0.748637 -0.661020 158 158 158
-0.168575 0.503453 -0.841847 -0.413285 0.628802 -0.658637 158 158 158
-0.727553 0.496442 -0.497791 -0.413285 0.628802 -0.658637 158 158 158
-0.286822 0.869410 -0.418268 -0.413285 0.628802 -0.658637 158 158 158
-0.168575 0.503453 -0.841847 -0.491965 0.361735 -0.791908 158 158 158
-0.547452 -0.005363 -0.838895 -0.491965 0.361735 -0.791908 158 158 158
-0.727553 0.496442 -0.497791 -0.491965 0.361735 -0.791908 158 158 158
-0.547452 -0.005363 -0.838895 -0.705232 0.207678 -0.677877 145 145 145
-0.963258 -0.016758 -0.409800 -0.705232 0.207678 -0.677877 145 145 145
-0.727553 0.496442 -0.497791 -0.705232 0.207678 -0.677877 145 145 145
-0.547452 -0.005363 -0.838895 -0.702167 -0.192374 -0.685531 145 145 145
-0.739206 -0.514044 -0.499741 -0.702167 -0.192374 -0.685531 145 145 145
-0.963258 -0.016758 -0.409800 -0.702167 -0.192374 -0.685531 145 145 145
-0.547452 -0.005363 -0.838895 -0.481286 -0.353403 -0.802166 158 123 125
-0.172108 -0.502189 -0.845213 -0.481286 -0.353403 -0.802166 158 123 125
-0.739206 -0.514044 -0.499741 -0.481286 -0.353403 -0.802166 158 123 125
-0.172108 -0.502189 -0.845213 -0.394689 -0.629294 -0.669484 158 123 125
-0.299980 -0.857879 -0.435489 -0.394689 -0.629294 -0.669484 158 123 125
-0.739206 -0.514044 -0.499741 -0.394689 -0.629294 -0.669484 158 123 125
0.854790 0.020883 -0.505893 0.704031 0.275323 -0.654628 145 145 145
0.426491 0.318078 -0.841520 0.704031 0.275323 -0.654628 145 145 145
0.731247 0.564988 -0.409920 0.704031 0.275323 -0.654628 145 145 145
0.854790 0.020883 -0.505893 0.642422 0.063326 -0.763730 173 173 173
0.442523 -0.317925 -0.880770 0.642422 0.063326 -0.763730 173 173 173
0.426491 0.318078 -0.841520 0.642422 0.063326 -0.763730 173 173 173
0.442523 -0.317925 -0.880770 0.294045 0.066255 -0.953493 173 173 173
-0.003690 0.000672 -0.996238 0.294045 0.066255 -0.953493 173 173 173
0.426491 0.318078 -0.841520 0.294045 0.066255 -0.953493 173 173 173
-0.172108 -0.502189 -0.845213 -0.033342 -0.749550 -0.661108 158 123 125
0.258776 -0.807533 -0.520751 -0.033342 -0.749550 -0.661108 158 123 125
-0.299980 -0.857879 -0.435489 -0.033342 -0.749550 -0.661108 158 123 125
-0.172108 -0.502189 -0.845213 0.141344 -0.620339 -0.771493 173 173 173
0.442523 -0.317925 -0.880770 0.141344 -0.620339 -0.771493 173 173 173
0.258776 -0.807533 -0.520751 0.141344 -0.620339 -0.771493 173 173 173
0.442523 -0.317925 -0.880770 0.467427 -0.630828 -0.619329 173 173 173
0.739720 -0.525356 -0.445184 0.467427 -0.630828 -0.619329 173 173 173
0.258776 -0.807533 -0.520751 0.467427 -0.630828 -0.619329 173 173 173
3 0 1 2
3 3 4 5
3 6 7 8
3 9 10 11
3 12 13 14
3 15 16 17
3 18 19 20
3 21 22 23
3 24 25 26
3 27 28 29
3 30 31 32
3 33 34 35
3 36 37 38
3 39 40 41
3 42 43 44
3 45 46 47
3 48 49 50
3 51 52 53
3 54 55 56
3 57 58 59
3 60 61 62
3 63 64 65
3 66 67 68
3 69 70 71
3 72 73 74
3 75 76 77
3 78 79 80
3 81 82 83
3 84 85 86
3 87 88 89
3 90 91 92
3 93 94 95
3 96 97 98
3 99 100 101
3 102 103 104
3 105 106 107
3 108 109 110
3 111 112 113
3 114 115 116
3 117 118 119
3 120 121 122
3 123 124 125
3 126 127 128
3 129 130 131
3 132 133 134
3 135 136 137
3 138 139 140
3 141 142 143
3 144 145 146
3 147 148 149
3 150 151 152
3 153 154 155
3 156 157 158
3 159 160 161
3 162 163 164
3 165 166 167
3 168 169 170
3 171 172 173
3 174 175 176
3 177 178 179
3 180 181 182
3 183 184 185
3 186 187 188
3 189 190 191
3 192 193 194
3 195 196 197
3 198 199 200
3 201 202 203
3 204 205 206
3 207 208 209
3 210 211 212
3 213 214 215
3 216 217 218
3 219 220 221
3 222 223 224
3 225 226 227
3 228 229 230
3 231 232 233
3 234 235 236
3 237 238 239
