ply
format ascii 1.0
comment Created by Blender 2.75 (sub 0) - www.blender.org, source file: ''
element vertex 42
property float x
property float y
property float z
property float nx
property float ny
property float nz
property uchar red
property uchar green
property uchar blue
element face 14
property list uchar uint vertex_indices
end_header
0.882243 -0.571109 0.589861 0.821406 -0.269264 -0.502781 173 173 173
-0.016421 -0.212611 -1.070301 0.821406 -0.269264 -0.502781 173 173 173
0.431049 0.666564 -0.810099 0.821406 -0.269264 -0.502781 173 173 173
0.431049 0.666564 -0.810099 -0.221215 0.926744 -0.303660 158 158 158
-0.992856 0.602121 0.030535 -0.221215 0.926744 -0.303660 158 158 158
0.088218 1.073526 0.681667 -0.221215 0.926744 -0.303660 157 157 157
-1.080439 -0.457470 -0.090888 -0.538442 -0.661295 0.522273 173 173 173
-0.240622 -1.102889 -0.042293 -0.538442 -0.661295 0.522273 173 173 173
-0.592199 0.080435 1.093555 -0.538442 -0.661295 0.522273 173 173 173
0.882243 -0.571109 0.589861 0.370659 0.127600 0.919962 158 158 158
0.088218 1.073526 0.681667 0.370659 0.127600 0.919962 157 157 157
-0.592199 0.080435 1.093555 0.370659 0.127600 0.919962 158 158 158
0.882243 -0.571109 0.589861 0.412045 0.148754 0.898939 158 158 158
0.919679 0.634860 0.373141 0.412045 0.148754 0.898939 158 158 158
0.088218 1.073526 0.681667 0.412045 0.148754 0.898939 157 157 157
0.088218 1.073526 0.681667 -0.585408 0.618497 0.524175 173 173 173
-0.992856 0.602121 0.030535 -0.585408 0.618497 0.524175 173 173 173
-0.592199 0.080435 1.093555 -0.585408 0.618497 0.524175 173 173 173
-0.592199 0.080435 1.093555 -0.067437 -0.701265 0.709704 145 145 145
-0.240622 -1.102889 -0.042293 -0.067437 -0.701265 0.709704 145 145 145
0.882243 -0.571109 0.589861 -0.067437 -0.701265 0.709704 145 145 145
-0.992856 0.602121 0.030535 -0.929434 0.034728 0.367351 145 145 145
-1.080439 -0.457470 -0.090888 -0.929434 0.034728 0.367351 145 145 145
-0.592199 0.080435 1.093555 -0.929434 0.034728 0.367351 145 145 145
0.919679 0.634860 0.373141 0.417781 0.896328 -0.148510 158 123 125
0.431049 0.666564 -0.810099 0.417781 0.896328 -0.148510 158 123 125
0.088218 1.073526 0.681667 0.417781 0.896328 -0.148510 159 128 129
0.882243 -0.571109 0.589861 0.918991 -0.097195 -0.382110 163 141 142
0.431049 0.666564 -0.810099 0.918991 -0.097195 -0.382110 161 133 135
0.919679 0.634860 0.373141 0.918991 -0.097195 -0.382110 160 131 133
0.431049 0.666564 -0.810099 -0.466548 0.460886 -0.754928 158 158 158
-0.016421 -0.212611 -1.070301 -0.466548 0.460886 -0.754928 158 158 158
-0.992856 0.602121 0.030535 -0.466548 0.460886 -0.754928 158 158 158
-0.016421 -0.212611 -1.070301 -0.687789 0.138508 -0.712574 145 145 145
-1.080439 -0.457470 -0.090888 -0.687789 0.138508 -0.712574 145 145 145
-0.992856 0.602121 0.030535 -0.687789 0.138508 -0.712574 145 145 145
-0.016421 -0.212611 -1.070301 -0.444694 -0.626807 -0.639813 158 123 125
-0.240622 -1.102889 -0.042293 -0.444694 -0.626807 -0.639813 158 123 125
-1.080439 -0.457470 -0.090888 -0.444694 -0.626807 -0.639813 158 123 125
-0.016421 -0.212611 -1.070301 0.577893 -0.675076 -0.458597 173 173 173
0.882243 -0.571109 0.589861 0.577893 -0.675076 -0.458597 173 173 173
-0.240622 -1.102889 -0.042293 0.577893 -0.675076 -0.458597 173 173 173
3 0 1 2
3 3 4 5
3 6 7 8
3 9 10 11
3 12 13 14
3 15 16 17
3 18 19 20
3 21 22 23
3 24 25 26
3 27 28 29
3 30 31 32
3 33 34 35
3 36 37 38
3 39 40 41
