ply
format ascii 1.0
comment Created by Blender 2.75 (sub 0) - www.blender.org, source file: ''
element vertex 60
property float x
property float y
property float z
property float nx
property float ny
property float nz
property uchar red
property uchar green
property uchar blue
element face 20
property list uchar uint vertex_indices
end_header
0.797122 -0.735865 0.047433 0.701260 -0.295535 -0.648763 173 173 173
-0.016421 -0.212611 -1.070301 0.701260 -0.295535 -0.648763 173 173 173
0.683898 0.528035 -0.650704 0.701260 -0.295535 -0.648763 173 173 173
-0.016421 -0.212611 -1.070301 0.126671 0.395572 -0.909658 173 173 173
-0.246309 0.716035 -0.698484 0.126671 0.395572 -0.909658 173 173 173
0.683898 0.528035 -0.650704 0.126671 0.395572 -0.909658 173 173 173
-0.246309 0.716035 -0.698484 -0.307152 0.936683 -0.168174 158 158 158
-0.992856 0.602121 0.030535 -0.307152 0.936683 -0.168174 158 158 158
0.088218 1.073526 0.681667 -0.307152 0.936683 -0.168174 157 157 157
-1.080439 -0.457470 -0.090888 -0.673274 -0.528197 0.517407 173 173 173
-0.388517 -0.998463 0.257198 -0.673274 -0.528197 0.517407 173 173 173
-0.592199 0.080435 1.093555 -0.673274 -0.528197 0.517407 173 173 173
0.559424 -0.255593 1.005052 0.155940 0.285368 0.945647 158 158 158
0.088218 1.073526 0.681667 0.155940 0.285368 0.945647 157 157 157
-0.592199 0.080435 1.093555 0.155940 0.285368 0.945647 158 158 158
0.559424 -0.255593 1.005052 0.487196 0.365677 0.793045 158 158 158
0.919679 0.634860 0.373141 0.487196 0.365677 0.793045 158 158 158
0.088218 1.073526 0.681667 0.487196 0.365677 0.793045 157 157 157
0.088218 1.073526 0.681667 -0.585408 0.618497 0.524175 173 173 173
-0.992856 0.602121 0.030535 -0.585408 0.618497 0.524175 173 173 173
-0.592199 0.080435 1.093555 -0.585408 0.618497 0.524175 173 173 173
-0.592199 0.080435 1.093555 -0.122189 -0.622384 0.773116 145 145 145
-0.388517 -0.998463 0.257198 -0.122189 -0.622384 0.773116 145 145 145
0.559424 -0.255593 1.005052 -0.122189 -0.622384 0.773116 145 145 145
-0.388517 -0.998463 0.257198 0.270003 -0.832157 0.484369 173 173 173
0.797122 -0.735865 0.047433 0.270003 -0.832157 0.484369 173 173 173
0.559424 -0.255593 1.005052 0.270003 -0.832157 0.484369 173 173 173
-0.992856 0.602121 0.030535 -0.929434 0.034728 0.367351 145 145 145
-1.080439 -0.457470 -0.090888 -0.929434 0.034728 0.367351 145 145 145
-0.592199 0.080435 1.093555 -0.929434 0.034728 0.367351 145 145 145
0.797122 -0.735865 0.047433 0.936965 -0.157849 0.311738 147 127 128
0.919679 0.634860 0.373141 0.936965 -0.157849 0.311738 150 126 127
0.559424 -0.255593 1.005052 0.936965 -0.157849 0.311738 145 128 129
0.919679 0.634860 0.373141 0.403459 0.895815 -0.186379 158 123 125
0.683898 0.528035 -0.650704 0.403459 0.895815 -0.186379 158 123 125
0.088218 1.073526 0.681667 0.403459 0.895815 -0.186379 159 128 129
0.683898 0.528035 -0.650704 0.203860 0.934597 -0.291495 145 145 145
-0.246309 0.716035 -0.698484 0.203860 0.934597 -0.291495 145 145 145
0.088218 1.073526 0.681667 0.203860 0.934597 -0.291495 145 145 145
-1.080439 -0.457470 -0.090888 -0.469844 -0.816618 -0.335234 145 145 145
-0.017050 -0.900197 -0.502801 -0.469844 -0.816618 -0.335234 145 145 145
-0.388517 -0.998463 0.257198 -0.469844 -0.816618 -0.335234 145 145 145
-0.388517 -0.998463 0.257198 0.212390 -0.976926 -0.022503 158 158 158
-0.017050 -0.900197 -0.502801 0.212390 -0.976926 -0.022503 158 158 158
0.797122 -0.735865 0.047433 0.212390 -0.976926 -0.022503 158 158 158
0.797122 -0.735865 0.047433 0.974693 -0.034671 -0.220844 163 141 142
0.683898 0.528035 -0.650704 0.974693 -0.034671 -0.220844 161 133 135
0.919679 0.634860 0.373141 0.974693 -0.034671 -0.220844 160 131 133
-0.246309 0.716035 -0.698484 -0.702957 0.107479 -0.703064 158 158 158
-0.016421 -0.212611 -1.070301 -0.702957 0.107479 -0.703064 158 158 158
-0.992856 0.602121 0.030535 -0.702957 0.107479 -0.703064 158 158 158
-0.016421 -0.212611 -1.070301 -0.687789 0.138508 -0.712574 145 145 145
-1.080439 -0.457470 -0.090888 -0.687789 0.138508 -0.712574 145 145 145
-0.992856 0.602121 0.030535 -0.687789 0.138508 -0.712574 145 145 145
-0.016421 -0.212611 -1.070301 -0.491077 -0.554236 -0.672060 158 123 125
-0.017050 -0.900197 -0.502801 -0.491077 -0.554236 -0.672060 158 123 125
-1.080439 -0.457470 -0.090888 -0.491077 -0.554236 -0.672060 158 123 125
-0.016421 -0.212611 -1.070301 0.544737 -0.534106 -0.646523 173 173 173
0.797122 -0.735865 0.047433 0.544737 -0.534106 -0.646523 173 173 173
-0.017050 -0.900197 -0.502801 0.544737 -0.534106 -0.646523 173 173 173
3 0 1 2
3 3 4 5
3 6 7 8
3 9 10 11
3 12 13 14
3 15 16 17
3 18 19 20
3 21 22 23
3 24 25 26
3 27 28 29
3 30 31 32
3 33 34 35
3 36 37 38
3 39 40 41
3 42 43 44
3 45 46 47
3 48 49 50
3 51 52 53
3 54 55 56
3 57 58 59
