ply
format ascii 1.0
comment Created by Blender 2.75 (sub 0) - www.blender.org, source file: ''
element vertex 120
property float x
property float y
property float z
property float nx
property float ny
property float nz
property uchar red
property uchar green
property uchar blue
element face 40
property list uchar uint vertex_indices
end_header
0.896539 -0.451305 -0.247631 0.703633 -0.173535 -0.689047 173 173 173
0.200419 -0.387233 -0.974623 0.703633 -0.173535 -0.689047 173 173 173
0.853731 0.319129 -0.485377 0.703633 -0.173535 -0.689047 173 173 173
-0.300792 0.019795 -0.983906 0.019087 0.377964 -0.925624 173 173 173
-0.246309 0.716035 -0.698484 0.019087 0.377964 -0.925624 173 173 173
0.405829 0.635020 -0.718117 0.019087 0.377964 -0.925624 173 173 173
-0.246309 0.716035 -0.698484 -0.529391 0.796699 -0.291577 158 158 158
-1.018815 0.372429 -0.234772 -0.529391 0.796699 -0.291577 158 158 158
-0.793860 0.743931 0.371882 -0.529391 0.796699 -0.291577 158 158 158
0.853731 0.319129 -0.485377 0.648358 0.701723 -0.295324 158 125 127
0.405829 0.635020 -0.718117 0.648358 0.701723 -0.295324 158 123 125
0.674852 0.870540 0.432122 0.648358 0.701723 -0.295324 158 123 125
-0.905914 -0.286904 -0.499774 -0.983683 -0.111780 -0.140973 173 173 173
-0.996385 -0.461168 0.269691 -0.983683 -0.111780 -0.140973 173 173 173
-1.018815 0.372429 -0.234772 -0.983683 -0.111780 -0.140973 173 173 173
-0.246309 0.716035 -0.698484 -0.342388 0.918225 -0.199082 158 158 158
-0.793860 0.743931 0.371882 -0.342388 0.918225 -0.199082 158 158 158
0.166577 1.105240 0.386552 -0.342388 0.918225 -0.199082 157 157 157
0.853731 0.319129 -0.485377 0.853821 0.502597 -0.135593 173 173 173
0.674852 0.870540 0.432122 0.853821 0.502597 -0.135593 173 173 173
1.008239 0.269429 0.303320 0.853821 0.502597 -0.135593 173 173 173
-0.996385 -0.461168 0.269691 -0.584675 -0.629324 0.511963 173 173 173
-0.323865 -0.821595 0.594677 -0.584675 -0.629324 0.511963 173 173 173
-0.781641 -0.181014 0.859311 -0.584675 -0.629324 0.511963 173 173 173
-0.793860 0.743931 0.371882 -0.687547 0.331402 0.646105 158 123 125
-0.781641 -0.181014 0.859311 -0.687547 0.331402 0.646105 158 123 125
-0.281413 0.277729 1.156324 -0.687547 0.331402 0.646105 158 123 125
1.008239 0.269429 0.303320 0.776357 0.313404 0.546852 158 123 125
0.674852 0.870540 0.432122 0.776357 0.313404 0.546852 158 123 125
0.559270 0.137855 1.016120 0.776357 0.313404 0.546852 158 123 125
0.559270 0.137855 1.016120 0.209335 0.338673 0.917322 158 158 158
-0.017664 0.907455 0.863643 0.209335 0.338673 0.917322 158 158 158
-0.281413 0.277729 1.156324 0.209335 0.338673 0.917322 158 158 158
0.559270 0.137855 1.016120 0.476872 0.500629 0.722471 158 158 158
0.674852 0.870540 0.432122 0.476872 0.500629 0.722471 158 158 158
-0.017664 0.907455 0.863643 0.476872 0.500629 0.722471 158 158 158
0.674852 0.870540 0.432122 0.335433 0.817371 0.468390 158 158 158
0.166577 1.105240 0.386552 0.335433 0.817371 0.468390 158 158 158
-0.017664 0.907455 0.863643 0.335433 0.817371 0.468390 158 158 158
-0.017664 0.907455 0.863643 -0.530740 0.529768 0.661559 173 173 173
-0.793860 0.743931 0.371882 -0.530740 0.529768 0.661559 173 173 173
-0.281413 0.277729 1.156324 -0.530740 0.529768 0.661559 173 173 173
-0.781641 -0.181014 0.859311 -0.121817 -0.442423 0.888494 145 145 145
0.487417 -0.483688 0.882589 -0.121817 -0.442423 0.888494 145 145 145
-0.281413 0.277729 1.156324 -0.121817 -0.442423 0.888494 145 145 145
-0.781641 -0.181014 0.859311 -0.124340 -0.453456 0.882563 145 145 145
-0.323865 -0.821595 0.594677 -0.124340 -0.453456 0.882563 145 145 145
0.487417 -0.483688 0.882589 -0.124340 -0.453456 0.882563 145 145 145
-0.323865 -0.821595 0.594677 0.175452 -0.847739 0.500555 173 173 173
0.485800 -0.859198 0.247192 0.175452 -0.847739 0.500555 173 173 173
0.487417 -0.483688 0.882589 0.175452 -0.847739 0.500555 173 173 173
0.487417 -0.483688 0.882589 0.124321 -0.222133 0.967058 158 158 158
0.559270 0.137855 1.016120 0.124321 -0.222133 0.967058 158 158 158
-0.281413 0.277729 1.156324 0.124321 -0.222133 0.967058 158 158 158
0.487417 -0.483688 0.882589 0.844899 -0.203919 0.494533 158 123 125
1.008239 0.269429 0.303320 0.844899 -0.203919 0.494533 158 123 125
0.559270 0.137855 1.016120 0.844899 -0.203919 0.494533 158 123 125
0.166577 1.105240 0.386552 -0.344817 0.906740 0.242743 157 157 157
-0.793860 0.743931 0.371882 -0.344817 0.906740 0.242743 158 158 158
-0.017664 0.907455 0.863643 -0.344817 0.906740 0.242743 158 158 158
-1.018815 0.372429 -0.234772 -0.953015 0.131275 0.272999 158 123 125
-0.781641 -0.181014 0.859311 -0.953015 0.131275 0.272999 158 123 125
-0.793860 0.743931 0.371882 -0.953015 0.131275 0.272999 158 123 125
-1.018815 0.372429 -0.234772 -0.949878 0.142752 0.278125 145 145 145
-0.996385 -0.461168 0.269691 -0.949878 0.142752 0.278125 145 145 145
-0.781641 -0.181014 0.859311 -0.949878 0.142752 0.278125 145 145 145
-0.378367 -1.003052 0.000130 -0.556901 -0.778777 0.288735 173 173 173
-0.323865 -0.821595 0.594677 -0.556901 -0.778777 0.288735 173 173 173
-0.996385 -0.461168 0.269691 -0.556901 -0.778777 0.288735 173 173 173
-0.378367 -1.003052 0.000130 0.077723 -0.955520 0.284501 158 158 158
0.485800 -0.859198 0.247192 0.077723 -0.955520 0.284501 158 158 158
-0.323865 -0.821595 0.594677 0.077723 -0.955520 0.284501 158 158 158
0.485800 -0.859198 0.247192 0.826134 -0.486011 0.285123 145 145 145
0.896539 -0.451305 -0.247631 0.826134 -0.486011 0.285123 145 145 145
0.487417 -0.483688 0.882589 0.826134 -0.486011 0.285123 145 145 145
0.896539 -0.451305 -0.247631 0.876764 -0.370380 0.306763 147 127 128
1.008239 0.269429 0.303320 0.876764 -0.370380 0.306763 150 126 127
0.487417 -0.483688 0.882589 0.876764 -0.370380 0.306763 145 128 129
0.674852 0.870540 0.432122 0.423239 0.863050 -0.275705 158 123 125
0.405829 0.635020 -0.718117 0.423239 0.863050 -0.275705 158 123 125
0.166577 1.105240 0.386552 0.423239 0.863050 -0.275705 159 128 129
0.405829 0.635020 -0.718117 0.103516 0.923050 -0.370491 145 145 145
-0.246309 0.716035 -0.698484 0.103516 0.923050 -0.370491 145 145 145
0.166577 1.105240 0.386552 0.103516 0.923050 -0.370491 145 145 145
-0.996385 -0.461168 0.269691 -0.696770 -0.677576 -0.235377 145 145 145
-0.905914 -0.286904 -0.499774 -0.696770 -0.677576 -0.235377 145 145 145
-0.378367 -1.003052 0.000130 -0.696770 -0.677576 -0.235377 145 145 145
-0.905914 -0.286904 -0.499774 -0.493032 -0.712098 -0.499836 145 145 145
-0.017050 -0.900197 -0.502801 -0.493032 -0.712098 -0.499836 145 145 145
-0.378367 -1.003052 0.000130 -0.493032 -0.712098 -0.499836 145 145 145
-0.378367 -1.003052 0.000130 0.183001 -0.980682 -0.069087 158 158 158
-0.017050 -0.900197 -0.502801 0.183001 -0.980682 -0.069087 158 158 158
0.485800 -0.859198 0.247192 0.183001 -0.980682 -0.069087 158 158 158
-0.017050 -0.900197 -0.502801 0.485220 -0.828334 -0.280044 158 125 126
0.896539 -0.451305 -0.247631 0.485220 -0.828334 -0.280044 158 125 126
0.485800 -0.859198 0.247192 0.485220 -0.828334 -0.280044 158 123 125
0.896539 -0.451305 -0.247631 0.981277 -0.004893 -0.192542 163 141 142
0.853731 0.319129 -0.485377 0.981277 -0.004893 -0.192542 161 133 135
1.008239 0.269429 0.303320 0.981277 -0.004893 -0.192542 160 131 133
-0.246309 0.716035 -0.698484 -0.591117 0.345118 -0.729023 158 158 158
-0.300792 0.019795 -0.983906 -0.591117 0.345118 -0.729023 158 158 158
-1.018815 0.372429 -0.234772 -0.591117 0.345118 -0.729023 158 158 158
-0.300792 0.019795 -0.983906 -0.667867 0.176271 -0.723106 145 145 145
-0.905914 -0.286904 -0.499774 -0.667867 0.176271 -0.723106 145 145 145
-1.018815 0.372429 -0.234772 -0.667867 0.176271 -0.723106 145 145 145
-0.300792 0.019795 -0.983906 -0.381334 -0.487485 -0.785457 158 123 125
0.200419 -0.387233 -0.974623 -0.381334 -0.487485 -0.785457 158 123 125
-0.905914 -0.286904 -0.499774 -0.381334 -0.487485 -0.785457 158 123 125
0.200419 -0.387233 -0.974623 -0.373318 -0.537328 -0.756249 158 123 125
-0.017050 -0.900197 -0.502801 -0.373318 -0.537328 -0.756249 158 123 125
-0.905914 -0.286904 -0.499774 -0.373318 -0.537328 -0.756249 158 123 125
0.853731 0.319129 -0.485377 0.517740 0.108894 -0.848580 173 173 173
0.200419 -0.387233 -0.974623 0.517740 0.108894 -0.848580 173 173 173
0.405829 0.635020 -0.718117 0.517740 0.108894 -0.848580 173 173 173
0.200419 -0.387233 -0.974623 0.183749 0.204340 -0.961500 173 173 173
-0.300792 0.019795 -0.983906 0.183749 0.204340 -0.961500 173 173 173
0.405829 0.635020 -0.718117 0.183749 0.204340 -0.961500 173 173 173
0.200419 -0.387233 -0.974623 0.488653 -0.693777 -0.529047 173 173 173
0.896539 -0.451305 -0.247631 0.488653 -0.693777 -0.529047 173 173 173
-0.017050 -0.900197 -0.502801 0.488653 -0.693777 -0.529047 173 173 173
3 0 1 2
3 3 4 5
3 6 7 8
3 9 10 11
3 12 13 14
3 15 16 17
3 18 19 20
3 21 22 23
3 24 25 26
3 27 28 29
3 30 31 32
3 33 34 35
3 36 37 38
3 39 40 41
3 42 43 44
3 45 46 47
3 48 49 50
3 51 52 53
3 54 55 56
3 57 58 59
3 60 61 62
3 63 64 65
3 66 67 68
3 69 70 71
3 72 73 74
3 75 76 77
3 78 79 80
3 81 82 83
3 84 85 86
3 87 88 89
3 90 91 92
3 93 94 95
3 96 97 98
3 99 100 101
3 102 103 104
3 105 106 107
3 108 109 110
3 111 112 113
3 114 115 116
3 117 118 119
