ply
format ascii 1.0
comment Created by Blender 2.75 (sub 0) - www.blender.org, source file: ''
element vertex 12
property float x
property float y
property float z
property float nx
property float ny
property float nz
property uchar red
property uchar green
property uchar blue
element face 4
property list uchar uint vertex_indices
end_header
0.247648 0.297126 -1.156796 -0.383313 0.882044 -0.273988 158 158 158
-1.308940 0.129868 0.482441 -0.383313 0.882044 -0.273988 158 158 158
0.618601 1.020674 0.653539 -0.383313 0.882044 -0.273988 157 157 157
0.465143 -1.109646 0.381282 -0.030471 -0.124551 0.991745 158 158 158
0.618601 1.020674 0.653539 -0.030471 -0.124551 0.991745 157 157 157
-1.308940 0.129868 0.482441 -0.030471 -0.124551 0.991745 158 158 158
0.465143 -1.109646 0.381282 0.982102 -0.047451 -0.182276 163 141 142
0.247648 0.297126 -1.156796 0.982102 -0.047451 -0.182276 161 133 135
0.618601 1.020674 0.653539 0.982102 -0.047451 -0.182276 160 131 133
0.247648 0.297126 -1.156796 -0.501054 -0.672712 -0.544430 158 123 125
0.465143 -1.109646 0.381282 -0.501054 -0.672712 -0.544430 158 123 125
-1.308940 0.129868 0.482441 -0.501054 -0.672712 -0.544430 158 123 125
3 0 1 2
3 3 4 5
3 6 7 8
3 9 10 11
