ply
format ascii 1.0
comment Created by Blender 2.75 (sub 0) - www.blender.org, source file: 'letters.blend'
element vertex 9
property float x
property float y
property float z
property float nx
property float ny
property float nz
element face 7
property list uchar uint vertex_indices
end_header
-0.479783 0.815092 -0.000000 0.000000 0.000000 1.000000
-0.575268 -0.787252 0.000000 0.000000 0.000000 1.000000
-0.323209 0.634179 -0.000000 0.000000 0.000000 1.000000
-0.323481 1.015064 0.000000 -0.000000 -0.000000 1.000000
0.263587 -0.364021 -0.000000 -0.000000 -0.000000 1.000000
0.342530 -0.970396 -0.000000 -0.000000 0.000000 1.000000
0.575269 0.801300 -0.000000 -0.000000 0.000000 1.000000
0.393746 0.977408 -0.000000 -0.000000 0.000000 1.000000
-0.386956 -0.961014 0.000000 -0.000000 0.000000 1.000000
3 0 1 2
3 3 2 4
3 4 5 6
3 4 2 5
3 4 6 7
3 2 1 8
3 2 3 0
