ply
format ascii 1.0
comment Created by Blender 2.75 (sub 0) - www.blender.org, source file: 'letters.blend'
element vertex 11
property float x
property float y
property float z
property float nx
property float ny
property float nz
element face 11
property list uchar uint vertex_indices
end_header
-0.294709 0.797269 0.000000 -0.000000 -0.000000 1.000000
-0.494416 0.950307 0.000000 -0.000000 -0.000000 1.000000
-0.424350 0.072784 -0.000000 -0.000000 -0.000000 1.000000
0.246485 0.765562 0.000000 0.000000 -0.000000 1.000000
0.305004 0.191316 0.000000 0.000000 -0.000000 1.000000
0.400252 0.915291 0.000000 0.000000 -0.000000 1.000000
-0.238130 0.093567 0.000000 -0.000000 0.000000 1.000000
-0.241639 -0.098445 0.000000 -0.000000 0.000000 1.000000
-0.439125 -0.791460 0.000000 0.000000 0.000000 1.000000
-0.317554 -0.997932 0.000000 0.000000 0.000000 1.000000
0.488645 0.051220 -0.000000 0.000000 -0.000000 1.000000
3 0 1 2
3 3 4 5
3 6 2 7
3 0 3 5
3 6 0 2
3 8 9 2
3 1 0 5
3 2 9 7
3 10 4 7
3 4 10 5
3 4 6 7
