ply
format ascii 1.0
comment Created by Blender 2.75 (sub 0) - www.blender.org, source file: 'letters.blend'
element vertex 4
property float x
property float y
property float z
property float nx
property float ny
property float nz
element face 2
property list uchar uint vertex_indices
end_header
0.000000 -0.989894 0.000000 0.000000 0.000000 1.000000
0.142187 -0.847708 0.000000 0.000000 0.000000 1.000000
0.000000 -0.705521 0.000000 0.000000 0.000000 1.000000
-0.142187 -0.847708 0.000000 0.000000 0.000000 1.000000
3 0 1 2
3 3 0 2
