ply
format ascii 1.0
comment Created by Blender 2.76 (sub 0) - www.blender.org, source file: 'spaceshipdeal.blend'
element vertex 156
property float x
property float y
property float z
property float nx
property float ny
property float nz
element face 52
property list uchar uint vertex_indices
end_header
-1.613294 -6.783341 -0.039632 -0.390660 -0.173579 0.904022
-1.464771 -2.305447 0.884339 -0.390660 -0.173579 0.904022
-3.421336 -2.714122 -0.039632 -0.390660 -0.173579 0.904022
2.183922 -0.930477 -0.963604 0.424567 0.278284 -0.861569
-0.000000 0.338258 -1.630008 0.424567 0.278284 -0.861569
1.676731 0.590767 -0.722183 0.424567 0.278284 -0.861569
-1.676731 0.590767 -0.722183 -0.415520 0.312251 -0.854308
-0.000000 2.225219 -0.940320 -0.415520 0.312251 -0.854308
-0.000000 0.338258 -1.630008 -0.415520 0.312251 -0.854308
-1.184527 3.070198 -0.039632 -0.426077 0.309034 -0.850268
-0.000000 4.703348 -0.039632 -0.426077 0.309034 -0.850268
-0.000000 2.225219 -0.940320 -0.426077 0.309034 -0.850268
1.676731 0.590767 1.103255 0.421347 0.114285 0.899670
-0.000000 1.055994 1.829429 0.421347 0.114285 0.899670
-0.000000 -1.164448 2.111491 0.421347 0.114285 0.899670
-2.183922 -0.930477 -0.963604 -0.198240 -0.201116 -0.959298
-0.000000 -1.948519 -1.201483 -0.198240 -0.201116 -0.959298
-0.000000 -5.012511 -0.559121 -0.198240 -0.201116 -0.959298
1.184527 3.070198 -0.039632 0.532294 0.386074 0.753399
-0.000000 4.703348 -0.039632 0.532294 0.386074 0.753399
-0.000000 1.055994 1.829429 0.532294 0.386074 0.753399
1.613294 -6.783341 -0.039632 0.407433 -0.181031 -0.895112
2.183922 -0.930477 -0.963604 0.407433 -0.181031 -0.895112
3.421336 -2.714122 -0.039632 0.407433 -0.181031 -0.895112
1.464771 -2.305447 0.884339 0.335140 -0.578056 0.743998
-0.000000 -2.654255 1.273147 0.335140 -0.578056 0.743998
-0.000000 -5.012511 -0.559121 0.335140 -0.578056 0.743998
1.676731 0.590767 -0.722183 0.459490 -0.113312 -0.880925
2.942280 0.416307 -0.039632 0.459490 -0.113312 -0.880925
2.726786 -0.457536 -0.039632 0.459490 -0.113312 -0.880925
-0.000000 -1.164448 2.111491 0.719966 -0.340347 0.604825
-0.000000 -2.654255 1.273147 0.719966 -0.340347 0.604825
1.676731 0.590767 1.103255 0.719966 -0.340347 0.604825
-1.676731 0.590767 1.103255 -0.649327 -0.160127 0.743460
-2.942280 0.416307 -0.039632 -0.649327 -0.160127 0.743460
-2.726786 -0.457536 -0.039632 -0.649327 -0.160127 0.743460
-0.000000 0.338258 -1.630008 0.415520 0.312251 -0.854308
-0.000000 2.225219 -0.940320 0.415520 0.312251 -0.854308
1.676731 0.590767 -0.722183 0.415520 0.312251 -0.854308
3.421336 -2.714122 -0.039632 0.390660 -0.173579 0.904022
1.464771 -2.305447 0.884339 0.390660 -0.173579 0.904022
1.613294 -6.783341 -0.039632 0.390660 -0.173579 0.904022
-0.000000 2.225219 -0.940320 0.426077 0.309034 -0.850268
-0.000000 4.703348 -0.039632 0.426077 0.309034 -0.850268
1.184527 3.070198 -0.039632 0.426077 0.309034 -0.850268
-0.000000 -5.012511 -0.559121 0.198240 -0.201116 -0.959298
-0.000000 -1.948519 -1.201483 0.198240 -0.201116 -0.959298
2.183922 -0.930477 -0.963604 0.198240 -0.201116 -0.959298
2.726786 -0.457536 -0.039632 0.649327 -0.160127 0.743460
2.942280 0.416307 -0.039632 0.649327 -0.160127 0.743460
1.676731 0.590767 1.103255 0.649327 -0.160127 0.743460
-0.000000 -1.164448 2.111491 -0.421347 0.114285 0.899670
-0.000000 1.055994 1.829429 -0.421347 0.114285 0.899670
-1.676731 0.590767 1.103255 -0.421347 0.114285 0.899670
-1.676731 0.590767 1.103255 -0.682676 -0.104626 0.723192
-2.726786 -0.457536 -0.039632 -0.682676 -0.104626 0.723192
-1.464771 -2.305447 0.884339 -0.682676 -0.104626 0.723192
-0.000000 1.055994 1.829429 -0.532294 0.386074 0.753399
-0.000000 4.703348 -0.039632 -0.532294 0.386074 0.753399
-1.184527 3.070198 -0.039632 -0.532294 0.386074 0.753399
-3.421336 -2.714122 -0.039632 -0.407433 -0.181031 -0.895112
-2.183922 -0.930477 -0.963604 -0.407433 -0.181031 -0.895112
-1.613294 -6.783341 -0.039632 -0.407433 -0.181031 -0.895112
-2.726786 -0.457536 -0.039632 -0.459490 -0.113312 -0.880925
-2.942280 0.416307 -0.039632 -0.459490 -0.113312 -0.880925
-1.676731 0.590767 -0.722183 -0.459490 -0.113312 -0.880925
-0.000000 -1.948519 -1.201483 -0.189426 -0.180852 -0.965096
-2.183922 -0.930477 -0.963604 -0.189426 -0.180852 -0.965096
-0.000000 0.338258 -1.630008 -0.189426 -0.180852 -0.965096
-0.000000 -5.012511 -0.559121 -0.335140 -0.578056 0.743998
-0.000000 -2.654255 1.273147 -0.335140 -0.578056 0.743998
-1.464771 -2.305447 0.884339 -0.335140 -0.578056 0.743998
-0.000000 -1.948519 -1.201483 0.189426 -0.180852 -0.965096
-0.000000 0.338258 -1.630008 0.189426 -0.180852 -0.965096
2.183922 -0.930477 -0.963604 0.189426 -0.180852 -0.965096
3.421336 -2.714122 -0.039632 0.778529 0.239622 -0.580064
2.183922 -0.930477 -0.963604 0.778529 0.239622 -0.580064
2.726786 -0.457536 -0.039632 0.778529 0.239622 -0.580064
-2.183922 -0.930477 -0.963604 -0.424567 0.278284 -0.861569
-1.676731 0.590767 -0.722183 -0.424567 0.278284 -0.861569
-0.000000 0.338258 -1.630008 -0.424567 0.278284 -0.861569
-1.676731 0.590767 -0.722183 -0.420028 0.317426 -0.850186
-1.184527 3.070198 -0.039632 -0.420028 0.317426 -0.850186
-0.000000 2.225219 -0.940320 -0.420028 0.317426 -0.850186
-2.183922 -0.930477 -0.963604 -0.751568 -0.449898 -0.482429
-0.000000 -5.012511 -0.559121 -0.751568 -0.449898 -0.482429
-1.003945 -3.892445 -0.039632 -0.751568 -0.449898 -0.482429
1.676731 0.590767 1.103255 0.457022 0.445566 0.769806
1.184527 3.070198 -0.039632 0.457022 0.445566 0.769806
-0.000000 1.055994 1.829429 0.457022 0.445566 0.769806
1.464771 -2.305447 0.884339 0.162481 -0.531275 0.831473
-0.000000 -5.012511 -0.559121 0.162481 -0.531275 0.831473
1.003945 -3.892445 -0.039632 0.162481 -0.531275 0.831473
1.464771 -2.305447 0.884339 0.682676 -0.104626 0.723192
2.726786 -0.457536 -0.039632 0.682676 -0.104626 0.723192
1.676731 0.590767 1.103255 0.682676 -0.104626 0.723192
-3.421336 -2.714122 -0.039632 -0.446287 0.137362 0.884285
-1.464771 -2.305447 0.884339 -0.446287 0.137362 0.884285
-2.726786 -0.457536 -0.039632 -0.446287 0.137362 0.884285
-0.000000 -2.654255 1.273147 0.275976 -0.092512 0.956702
1.464771 -2.305447 0.884339 0.275976 -0.092512 0.956702
1.676731 0.590767 1.103255 0.275976 -0.092512 0.956702
3.421336 -2.714122 -0.039632 0.446287 0.137362 0.884285
2.726786 -0.457536 -0.039632 0.446287 0.137362 0.884285
1.464771 -2.305447 0.884339 0.446287 0.137362 0.884285
1.676731 0.590767 -0.722183 0.420028 0.317426 -0.850186
-0.000000 2.225219 -0.940320 0.420028 0.317426 -0.850186
1.184527 3.070198 -0.039632 0.420028 0.317426 -0.850186
1.003945 -3.892445 -0.039632 0.751568 -0.449898 -0.482429
-0.000000 -5.012511 -0.559121 0.751568 -0.449898 -0.482429
2.183922 -0.930477 -0.963604 0.751568 -0.449898 -0.482429
-2.183922 -0.930477 -0.963604 -0.726120 0.337187 -0.599211
-2.726786 -0.457536 -0.039632 -0.726120 0.337187 -0.599211
-1.676731 0.590767 -0.722183 -0.726120 0.337187 -0.599211
-1.464771 -2.305447 0.884339 -0.275976 -0.092512 0.956702
-0.000000 -2.654255 1.273147 -0.275976 -0.092512 0.956702
-1.676731 0.590767 1.103255 -0.275976 -0.092512 0.956702
-0.000000 -2.654255 1.273147 -0.719966 -0.340347 0.604825
-0.000000 -1.164448 2.111491 -0.719966 -0.340347 0.604825
-1.676731 0.590767 1.103255 -0.719966 -0.340347 0.604825
-1.676731 0.590767 1.103255 -0.457022 0.445566 0.769806
-0.000000 1.055994 1.829429 -0.457022 0.445566 0.769806
-1.184527 3.070198 -0.039632 -0.457022 0.445566 0.769806
1.676731 0.590767 -0.722183 0.726120 0.337187 -0.599211
2.726786 -0.457536 -0.039632 0.726120 0.337187 -0.599211
2.183922 -0.930477 -0.963604 0.726120 0.337187 -0.599211
-3.421336 -2.714122 -0.039632 -0.778529 0.239622 -0.580064
-2.726786 -0.457536 -0.039632 -0.778529 0.239622 -0.580064
-2.183922 -0.930477 -0.963604 -0.778529 0.239622 -0.580064
-1.003945 -3.892445 -0.039632 -0.162481 -0.531275 0.831473
-0.000000 -5.012511 -0.559121 -0.162481 -0.531275 0.831473
-1.464771 -2.305447 0.884339 -0.162481 -0.531275 0.831473
1.613294 -6.783341 -0.039632 -0.748403 -0.157750 0.644211
1.464771 -2.305447 0.884339 -0.748403 -0.157750 0.644211
1.003945 -3.892445 -0.039632 -0.748403 -0.157750 0.644211
-1.613294 -6.783341 -0.039632 0.748403 -0.157750 0.644211
-1.003945 -3.892445 -0.039632 0.748403 -0.157750 0.644211
-1.464771 -2.305447 0.884339 0.748403 -0.157750 0.644211
-1.613294 -6.783341 -0.039632 0.453714 -0.095635 -0.886001
-2.183922 -0.930477 -0.963604 0.453714 -0.095635 -0.886001
-1.003945 -3.892445 -0.039632 0.453714 -0.095635 -0.886001
1.613294 -6.783341 -0.039632 -0.453714 -0.095635 -0.886001
1.003945 -3.892445 -0.039632 -0.453714 -0.095635 -0.886001
2.183922 -0.930477 -0.963604 -0.453714 -0.095635 -0.886001
1.676731 0.590767 1.103255 0.638725 0.423047 0.642699
2.942280 0.416307 -0.039632 0.638725 0.423047 0.642699
1.184527 3.070198 -0.039632 0.638725 0.423047 0.642699
1.676731 0.590767 -0.722183 0.483514 0.320246 -0.814651
1.184527 3.070198 -0.039632 0.483514 0.320246 -0.814651
2.942280 0.416307 -0.039632 0.483514 0.320246 -0.814651
-1.676731 0.590767 1.103255 -0.638725 0.423047 0.642699
-1.184527 3.070198 -0.039632 -0.638725 0.423047 0.642699
-2.942280 0.416307 -0.039632 -0.638725 0.423047 0.642699
-1.676731 0.590767 -0.722183 -0.483514 0.320246 -0.814651
-2.942280 0.416307 -0.039632 -0.483514 0.320246 -0.814651
-1.184527 3.070198 -0.039632 -0.483514 0.320246 -0.814651
3 0 1 2
3 3 4 5
3 6 7 8
3 9 10 11
3 12 13 14
3 15 16 17
3 18 19 20
3 21 22 23
3 24 25 26
3 27 28 29
3 30 31 32
3 33 34 35
3 36 37 38
3 39 40 41
3 42 43 44
3 45 46 47
3 48 49 50
3 51 52 53
3 54 55 56
3 57 58 59
3 60 61 62
3 63 64 65
3 66 67 68
3 69 70 71
3 72 73 74
3 75 76 77
3 78 79 80
3 81 82 83
3 84 85 86
3 87 88 89
3 90 91 92
3 93 94 95
3 96 97 98
3 99 100 101
3 102 103 104
3 105 106 107
3 108 109 110
3 111 112 113
3 114 115 116
3 117 118 119
3 120 121 122
3 123 124 125
3 126 127 128
3 129 130 131
3 132 133 134
3 135 136 137
3 138 139 140
3 141 142 143
3 144 145 146
3 147 148 149
3 150 151 152
3 153 154 155
