ply
format ascii 1.0
comment Created by Blender 2.76 (sub 0) - www.blender.org, source file: ''
element vertex 12
property float x
property float y
property float z
property float nx
property float ny
property float nz
element face 4
property list uchar uint vertex_indices
end_header
0.000000 -0.491035 0.229856 0.466288 0.134782 0.874305
0.550954 -0.906072 0.000000 0.466288 0.134782 0.874305
0.000000 1.000000 0.000000 0.466288 0.134782 0.874305
-0.550954 -0.906072 0.000000 -0.466288 0.134782 0.874305
0.000000 -0.491035 0.229856 -0.466288 0.134782 0.874305
0.000000 1.000000 0.000000 -0.466288 0.134782 0.874305
0.000000 -0.491035 0.229856 0.142993 -0.617972 0.773087
-0.550954 -0.906072 0.000000 0.142993 -0.617972 0.773087
0.000000 -0.778587 0.000000 0.142993 -0.617972 0.773087
0.550954 -0.906072 0.000000 -0.142993 -0.617972 0.773087
0.000000 -0.491035 0.229856 -0.142993 -0.617972 0.773087
0.000000 -0.778587 0.000000 -0.142993 -0.617972 0.773087
3 0 1 2
3 3 4 5
3 6 7 8
3 9 10 11
