ply
format ascii 1.0
comment Created by Blender 2.75 (sub 0) - www.blender.org, source file: 'letters.blend'
element vertex 14
property float x
property float y
property float z
property float nx
property float ny
property float nz
element face 14
property list uchar uint vertex_indices
end_header
-0.404599 0.775371 0.000000 0.000000 -0.000000 1.000000
0.349446 0.637838 0.000000 0.000000 -0.000000 1.000000
0.512367 0.819216 0.000000 0.000000 -0.000000 1.000000
0.266473 -0.386954 0.000000 0.000000 0.000000 1.000000
0.404846 -0.548551 0.000000 0.000000 0.000000 1.000000
0.224662 -0.640360 0.000000 0.000000 -0.000000 1.000000
-0.550756 -0.938566 0.000000 0.000000 -0.000000 1.000000
0.329644 -0.751550 0.000000 0.000000 -0.000000 1.000000
-0.585365 0.984881 0.000000 -0.000000 0.000000 1.000000
-0.379903 -0.710387 0.000000 -0.000000 0.000000 1.000000
-0.063013 -0.351002 0.000000 0.000000 -0.000000 1.000000
0.565036 -0.961035 -0.000000 0.000000 -0.000000 1.000000
0.585364 -0.772942 -0.000000 0.000000 -0.000000 1.000000
-0.013350 -0.069022 0.000000 0.000000 -0.000000 1.000000
3 0 1 2
3 1 3 4
3 5 6 7
3 8 6 9
3 8 0 2
3 9 6 5
3 0 8 9
3 10 5 3
3 5 7 4
3 7 11 12
3 2 1 4
3 13 10 3
3 3 5 4
3 4 7 12
