ply
format ascii 1.0
comment Created by Blender 2.75 (sub 0) - www.blender.org, source file: 'letters.blend'
element vertex 15
property float x
property float y
property float z
property float nx
property float ny
property float nz
element face 15
property list uchar uint vertex_indices
end_header
-0.245848 -0.986630 0.000000 0.000000 0.000000 1.000000
-0.266633 -0.126485 0.000000 0.000000 0.000000 1.000000
-0.489253 0.446028 0.000000 0.000000 0.000000 1.000000
-0.281000 0.177452 -0.000000 0.000000 0.000000 1.000000
-0.178333 -0.094080 0.000000 -0.000000 0.000000 1.000000
0.002978 -0.020893 0.000000 -0.000000 0.000000 1.000000
-0.094095 0.095736 -0.000000 -0.000000 0.000000 1.000000
-0.260216 0.792562 0.000000 0.000000 -0.000000 1.000000
-0.355718 0.977727 0.000000 0.000000 0.000000 1.000000
0.489254 0.471941 0.000000 -0.000000 -0.000000 1.000000
0.181023 0.835730 0.000000 -0.000000 -0.000000 1.000000
-0.414747 -0.743527 0.000000 0.000000 0.000000 1.000000
0.254140 0.506648 -0.000000 -0.000000 -0.000000 1.000000
0.382512 -0.923783 0.000000 0.000000 0.000000 1.000000
0.435865 -0.600555 0.000000 0.000000 0.000000 1.000000
3 0 1 2
3 1 3 2
3 4 5 6
3 3 7 2
3 2 7 8
3 9 10 8
3 11 0 2
3 1 4 3
3 12 9 8
3 12 6 5
3 4 13 14
3 3 4 6
3 7 12 8
3 9 12 5
3 5 4 14
