ply
format ascii 1.0
comment Created by Blender 2.75 (sub 0) - www.blender.org, source file: 'letters.blend'
element vertex 17
property float x
property float y
property float z
property float nx
property float ny
property float nz
element face 15
property list uchar uint vertex_indices
end_header
-0.191182 0.671382 -0.000000 0.000000 -0.000000 1.000000
-0.350343 0.854367 -0.000000 0.000000 -0.000000 1.000000
-0.436621 0.291239 -0.000000 0.000000 -0.000000 1.000000
-0.273416 -0.793256 -0.000000 -0.000000 -0.000000 1.000000
-0.348987 -0.979586 -0.000000 -0.000000 -0.000000 1.000000
0.436186 -0.890005 0.000000 -0.000000 -0.000000 1.000000
-0.188824 0.301473 -0.000000 -0.000000 0.000000 1.000000
-0.216061 -0.006699 -0.000000 -0.000000 0.000000 1.000000
0.096933 0.781591 -0.000000 -0.000000 0.000000 1.000000
0.139165 0.970087 -0.000000 -0.000000 0.000000 1.000000
0.257480 -0.138365 0.000000 -0.000000 -0.000000 1.000000
0.434936 0.016263 0.000000 -0.000000 -0.000000 1.000000
0.274009 -0.736128 0.000000 -0.000000 -0.000000 1.000000
-0.560466 -0.569893 -0.000000 -0.000000 -0.000000 1.000000
0.442985 0.769488 -0.000000 0.000000 0.000000 1.000000
0.395560 -0.445768 0.000000 -0.000000 0.000000 1.000000
0.560466 -0.418648 0.000000 0.000000 -0.000000 1.000000
3 0 1 2
3 3 4 5
3 6 2 7
3 0 8 9
3 7 10 11
3 6 0 2
3 12 3 5
3 1 0 9
3 11 6 7
3 3 13 4
3 9 8 14
3 11 10 15
3 12 5 16
3 16 11 15
3 15 12 16
