ply
format ascii 1.0
comment Created by Blender 2.75 (sub 0) - www.blender.org, source file: ''
element vertex 3
property float x
property float y
property float z
property float nx
property float ny
property float nz
property uchar red
property uchar green
property uchar blue
element face 1
property list uchar uint vertex_indices
end_header
-0.866025 -0.500000 0.000000 0.000000 0.000000 1.000000 255 255 255
0.866025 -0.500000 0.000000 0.000000 0.000000 1.000000 255 255 255
0.000000 1.000000 0.000000 0.000000 0.000000 1.000000 255 255 255
3 0 1 2
