ply
format ascii 1.0
comment Created by Blender 2.75 (sub 0) - www.blender.org, source file: 'letters.blend'
element vertex 9
property float x
property float y
property float z
property float nx
property float ny
property float nz
element face 7
property list uchar uint vertex_indices
end_header
-0.146984 -0.909834 -0.000000 -0.000000 0.000000 1.000000
0.053221 -0.970870 -0.000000 -0.000000 0.000000 1.000000
0.054610 0.002978 -0.000000 -0.000000 0.000000 1.000000
-0.416547 0.956083 -0.000000 0.000000 0.000000 1.000000
-0.627694 0.765596 -0.000000 0.000000 0.000000 1.000000
-0.117799 0.780686 -0.000000 0.000000 0.000000 1.000000
0.067737 0.800725 -0.000000 -0.000000 0.000000 1.000000
0.627694 0.842830 0.000000 -0.000000 0.000000 1.000000
0.298863 0.978457 -0.000000 -0.000000 0.000000 1.000000
3 0 1 2
3 3 4 5
3 0 2 5
3 2 6 5
3 7 8 3
3 5 6 3
3 6 7 3
