ply
format ascii 1.0
comment Created by Blender 2.75 (sub 0) - www.blender.org, source file: 'letters.blend'
element vertex 8
property float x
property float y
property float z
property float nx
property float ny
property float nz
element face 6
property list uchar uint vertex_indices
end_header
0.400310 0.987668 -0.000000 0.000000 0.000000 1.000000
0.364704 -0.758840 0.000000 0.000000 0.000000 1.000000
0.517285 -1.012745 -0.000000 0.000000 0.000000 1.000000
-0.496473 -0.946910 0.000000 0.000000 -0.000000 1.000000
-0.540803 0.824400 0.000000 0.000000 0.000000 1.000000
-0.348689 -0.729590 -0.000000 0.000000 0.000000 1.000000
0.540489 0.689610 -0.000000 -0.000000 -0.000000 1.000000
-0.361303 0.984882 0.000000 -0.000000 -0.000000 1.000000
3 0 1 2
3 3 2 1
3 4 3 5
3 6 0 2
3 5 3 1
3 7 4 5
