ply
format ascii 1.0
comment Created by Blender 2.75 (sub 0) - www.blender.org, source file: 'letters.blend'
element vertex 7
property float x
property float y
property float z
property float nx
property float ny
property float nz
element face 5
property list uchar uint vertex_indices
end_header
-0.172160 -0.969591 0.000000 -0.000000 -0.000000 1.000000
0.027404 -0.988460 0.000000 -0.000000 -0.000000 1.000000
-0.058950 -0.739052 0.000000 -0.000000 -0.000000 1.000000
0.556432 0.471454 -0.000000 -0.000000 0.000000 1.000000
0.452410 0.993986 -0.000000 -0.000000 0.000000 1.000000
-0.520432 0.954931 0.000000 -0.000000 -0.000000 1.000000
-0.592779 0.281741 0.000000 -0.000000 -0.000000 1.000000
3 0 1 2
3 3 4 2
3 2 5 6
3 0 2 6
3 1 3 2
