ply
format ascii 1.0
comment Created by Blender 2.75 (sub 0) - www.blender.org, source file: 'letters.blend'
element vertex 12
property float x
property float y
property float z
property float nx
property float ny
property float nz
element face 10
property list uchar uint vertex_indices
end_header
0.613382 0.700151 -0.000000 0.000000 -0.000000 1.000000
0.412931 0.982744 0.000000 0.000000 -0.000000 1.000000
0.451463 -0.930690 -0.000000 0.000000 -0.000000 1.000000
-0.447230 0.982744 0.000000 0.000000 -0.000000 1.000000
-0.565360 -0.938855 -0.000000 0.000000 -0.000000 1.000000
-0.393328 -0.653141 -0.000000 0.000000 -0.000000 1.000000
0.001696 0.184258 -0.000000 0.000000 -0.000000 1.000000
-0.295615 -0.970754 -0.000000 0.000000 -0.000000 1.000000
0.000021 -0.123020 -0.000000 0.000000 -0.000000 1.000000
0.235236 -0.975649 -0.000000 -0.000000 -0.000000 1.000000
0.319828 -0.731542 -0.000000 0.000000 -0.000000 1.000000
-0.613382 0.670857 0.000000 0.000000 -0.000000 1.000000
3 0 1 2
3 3 4 5
3 6 7 8
3 6 8 9
3 10 9 2
3 7 6 5
3 9 10 6
3 11 4 3
3 1 10 2
3 5 4 7
