ply
format ascii 1.0
comment Created by Blender 2.75 (sub 0) - www.blender.org, source file: 'letters.blend'
element vertex 10
property float x
property float y
property float z
property float nx
property float ny
property float nz
element face 8
property list uchar uint vertex_indices
end_header
-0.000675 0.132889 0.000000 -0.000000 0.000000 1.000000
0.141737 -0.013989 0.000000 -0.000000 0.000000 1.000000
0.572454 0.976001 0.000000 -0.000000 0.000000 1.000000
0.482957 -0.664231 0.000000 -0.000000 -0.000000 1.000000
-0.019231 -0.235035 -0.000000 -0.000000 -0.000000 1.000000
-0.565759 0.977660 0.000000 0.000000 -0.000000 1.000000
-0.169413 -0.050086 0.000000 0.000000 -0.000000 1.000000
0.306861 -0.954015 0.000000 -0.000000 0.000000 1.000000
-0.375898 -0.960431 -0.000000 -0.000000 -0.000000 1.000000
-0.560496 -0.675044 -0.000000 -0.000000 -0.000000 1.000000
3 0 1 2
3 3 1 4
3 0 5 6
3 7 3 4
3 4 1 6
3 8 4 9
3 9 4 6
3 0 6 1
