ply
format ascii 1.0
comment Created by Blender 2.75 (sub 0) - www.blender.org, source file: ''
element vertex 9
property float x
property float y
property float z
property float nx
property float ny
property float nz
element face 7
property list uchar uint vertex_indices
end_header
-0.112650 -0.057638 0.000000 0.000000 0.000000 1.000000
0.137827 -0.076506 0.000000 0.000000 0.000000 1.000000
0.029442 0.172901 0.000000 0.000000 0.000000 1.000000
0.599818 0.648524 0.000000 -0.000000 0.000000 1.000000
0.535403 0.997501 0.000000 -0.000000 0.000000 1.000000
-0.526869 0.987301 0.000000 -0.000000 0.000000 1.000000
-0.574887 0.602202 0.000000 -0.000000 0.000000 1.000000
-0.149405 -0.966076 0.000000 -0.000000 0.000000 1.000000
0.101072 -0.984944 0.000000 -0.000000 0.000000 1.000000
3 0 1 2
3 3 4 2
3 2 5 6
3 0 2 6
3 1 3 2
3 1 0 7
3 8 1 7
