ply
format ascii 1.0
comment Created by Blender 2.75 (sub 0) - www.blender.org, source file: 'letters.blend'
element vertex 9
property float x
property float y
property float z
property float nx
property float ny
property float nz
element face 7
property list uchar uint vertex_indices
end_header
0.531715 0.978863 -0.000000 0.000000 -0.000000 1.000000
-0.497854 0.712595 0.000000 0.000000 -0.000000 1.000000
0.323976 0.744798 -0.000000 0.000000 -0.000000 1.000000
0.554530 0.710368 -0.000000 0.000000 -0.000000 1.000000
-0.334623 -0.776210 0.000000 0.000000 -0.000000 1.000000
-0.638811 -0.973713 0.000000 0.000000 0.000000 1.000000
0.404368 -0.919320 -0.000000 0.000000 0.000000 1.000000
0.642546 -0.583500 -0.000000 0.000000 -0.000000 1.000000
-0.642546 0.357637 0.000000 0.000000 -0.000000 1.000000
3 0 1 2
3 3 2 4
3 4 5 6
3 4 2 5
3 4 6 7
3 2 1 8
3 2 3 0
